G04 EAGLE Gerber RS-274X export*
G75*
%MOMM*%
%FSLAX34Y34*%
%LPD*%
%INTop Copper*%
%IPPOS*%
%AMOC8*
5,1,8,0,0,1.08239X$1,22.5*%
G01*
%ADD10C,2.540000*%
%ADD11R,1.900000X1.900000*%
%ADD12C,1.900000*%
%ADD13R,1.397000X1.397000*%
%ADD14C,2.000000*%
%ADD15C,0.756400*%
%ADD16C,0.152400*%


D10*
X152400Y25400D03*
X215900Y50800D03*
X342900Y25400D03*
X406400Y50800D03*
X533400Y25400D03*
X596900Y50800D03*
X152400Y-165100D03*
X215900Y-139700D03*
X342900Y-165100D03*
X406400Y-139700D03*
X533400Y-165100D03*
X596900Y-139700D03*
X152400Y-355600D03*
X215900Y-330200D03*
X342900Y-355600D03*
X406400Y-330200D03*
X533400Y-355600D03*
X596900Y-330200D03*
X152400Y-546100D03*
X215900Y-520700D03*
X342900Y-546100D03*
X406400Y-520700D03*
X533400Y-546100D03*
X596900Y-520700D03*
D11*
X474345Y303095D03*
D12*
X474345Y233095D03*
D13*
X474345Y284605D03*
X474345Y251585D03*
D11*
X502920Y287855D03*
D12*
X502920Y217855D03*
D13*
X502920Y269365D03*
X502920Y236345D03*
D11*
X531495Y272615D03*
D12*
X531495Y202615D03*
D13*
X531495Y254125D03*
X531495Y221105D03*
D11*
X560070Y303405D03*
D12*
X560070Y233405D03*
D13*
X560070Y284915D03*
X560070Y251895D03*
D11*
X588645Y288165D03*
D12*
X588645Y218165D03*
D13*
X588645Y269675D03*
X588645Y236655D03*
D11*
X617220Y272925D03*
D12*
X617220Y202925D03*
D13*
X617220Y254435D03*
X617220Y221415D03*
D11*
X155500Y120125D03*
D12*
X225500Y120125D03*
D13*
X173990Y120125D03*
X207010Y120125D03*
D11*
X308368Y120125D03*
D12*
X378368Y120125D03*
D13*
X326858Y120125D03*
X359878Y120125D03*
D11*
X459492Y120125D03*
D12*
X529492Y120125D03*
D13*
X477982Y120125D03*
X511002Y120125D03*
D11*
X231700Y89003D03*
D12*
X301700Y89003D03*
D13*
X250190Y89003D03*
X283210Y89003D03*
D11*
X382969Y88841D03*
D12*
X452969Y88841D03*
D13*
X401459Y88841D03*
X434479Y88841D03*
D11*
X532777Y88770D03*
D12*
X602777Y88770D03*
D13*
X551267Y88770D03*
X584287Y88770D03*
D14*
X417125Y153607D03*
X391725Y153607D03*
X366325Y153607D03*
X340925Y153607D03*
X315525Y153607D03*
X290125Y153607D03*
X264725Y153607D03*
X239325Y153607D03*
X213925Y153607D03*
X188525Y153607D03*
X163125Y153607D03*
X137725Y153607D03*
X417125Y304807D03*
X391725Y304807D03*
X366325Y304807D03*
X340925Y304807D03*
X315525Y304807D03*
X290125Y304807D03*
X264725Y304807D03*
X239325Y304807D03*
X213925Y304807D03*
X188525Y304807D03*
X163125Y304807D03*
X137725Y304807D03*
D15*
X507203Y25472D03*
D16*
X507196Y25465D01*
X476940Y25465D01*
X476883Y25408D01*
D15*
X476883Y25408D03*
X298124Y72201D03*
D16*
X368641Y72201D01*
X368692Y72253D01*
D15*
X368692Y72253D03*
D16*
X474345Y303095D02*
X487680Y303095D01*
X502920Y287855D01*
X518160Y272615D01*
X531495Y272615D01*
X474345Y303095D02*
X463436Y292186D01*
X391725Y292186D01*
X391725Y304807D01*
X560070Y303405D02*
X573405Y303405D01*
X588645Y288165D01*
X603885Y272925D02*
X617220Y272925D01*
X603885Y272925D02*
X588645Y288165D01*
X560070Y303405D02*
X496268Y303405D01*
X481670Y318003D01*
X417125Y318003D02*
X417125Y304807D01*
X417125Y318003D02*
X481670Y318003D01*
X459492Y120125D02*
X397790Y120125D01*
X384559Y133356D01*
X321599Y133356D02*
X308368Y120125D01*
X321599Y133356D02*
X384559Y133356D01*
X308368Y120125D02*
X244566Y120125D01*
X231322Y133369D01*
X168744Y133369D01*
X155500Y120125D01*
X155500Y128830D01*
X163380Y136710D01*
X258630Y136710D01*
X264725Y142805D01*
X264725Y153607D01*
X215900Y50800D02*
X217866Y48834D01*
X217866Y-137734D01*
X215900Y-139700D01*
X217866Y-328234D02*
X215900Y-330200D01*
X217866Y-328234D02*
X217866Y-141666D01*
X215900Y-139700D01*
X217866Y-518734D02*
X215900Y-520700D01*
X217866Y-518734D02*
X217866Y-332166D01*
X215900Y-330200D01*
X225000Y210693D02*
X156725Y210693D01*
X215900Y71101D02*
X215900Y50800D01*
X225000Y210693D02*
X239325Y225018D01*
X239325Y304807D01*
X215900Y71101D02*
X171799Y71101D01*
X162900Y80000D01*
D15*
X162900Y80000D03*
X117832Y173700D03*
D16*
X119732Y173700D01*
X156725Y210693D01*
X406400Y50800D02*
X408366Y48834D01*
X408366Y-137734D01*
X406400Y-139700D01*
X408366Y-328234D02*
X406400Y-330200D01*
X408366Y-328234D02*
X408366Y-141666D01*
X406400Y-139700D01*
X408366Y-518734D02*
X406400Y-520700D01*
X408366Y-518734D02*
X408366Y-332166D01*
X406400Y-330200D01*
X406400Y50800D02*
X244662Y50800D01*
X143636Y103249D02*
X138511Y108375D01*
X123899Y173429D02*
X158115Y207645D01*
X246533Y207645D01*
X138511Y133869D02*
X138511Y108375D01*
X138511Y133869D02*
X123899Y148480D01*
X123899Y173429D01*
X219119Y97272D02*
X219119Y76342D01*
X213143Y103249D02*
X143636Y103249D01*
X219119Y76342D02*
X244662Y50800D01*
X219119Y97272D02*
X213143Y103249D01*
X264702Y225815D02*
X264702Y304784D01*
X264725Y304807D01*
X264702Y225815D02*
X246533Y207645D01*
X596900Y50800D02*
X598866Y48834D01*
X598866Y-137734D01*
X596900Y-139700D01*
X598866Y-328234D02*
X596900Y-330200D01*
X598866Y-328234D02*
X598866Y-141666D01*
X596900Y-139700D01*
X598866Y-518734D02*
X596900Y-520700D01*
X598866Y-518734D02*
X598866Y-332166D01*
X596900Y-330200D01*
X532777Y88770D02*
X472030Y88770D01*
X458554Y102247D01*
X396375Y102247D01*
X382969Y88841D01*
X321185Y88841D01*
X307627Y102399D01*
X245097Y102399D01*
X231700Y89003D01*
X145543Y106513D02*
X141750Y110307D01*
X141750Y140716D01*
X214189Y106513D02*
X231700Y89003D01*
X214189Y106513D02*
X145543Y106513D01*
X141750Y140716D02*
X237484Y140716D01*
X239325Y142558D01*
X239325Y153607D01*
M02*
