G04 EAGLE Gerber RS-274X export*
G75*
%MOMM*%
%FSLAX34Y34*%
%LPD*%
%INBottom Copper*%
%IPPOS*%
%AMOC8*
5,1,8,0,0,1.08239X$1,22.5*%
G01*
%ADD10C,2.540000*%
%ADD11R,1.900000X1.900000*%
%ADD12C,1.900000*%
%ADD13R,1.397000X1.397000*%
%ADD14C,2.000000*%
%ADD15C,0.152400*%
%ADD16C,0.756400*%


D10*
X152400Y25400D03*
X215900Y50800D03*
X342900Y25400D03*
X406400Y50800D03*
X533400Y25400D03*
X596900Y50800D03*
X152400Y-165100D03*
X215900Y-139700D03*
X342900Y-165100D03*
X406400Y-139700D03*
X533400Y-165100D03*
X596900Y-139700D03*
X152400Y-355600D03*
X215900Y-330200D03*
X342900Y-355600D03*
X406400Y-330200D03*
X533400Y-355600D03*
X596900Y-330200D03*
X152400Y-546100D03*
X215900Y-520700D03*
X342900Y-546100D03*
X406400Y-520700D03*
X533400Y-546100D03*
X596900Y-520700D03*
D11*
X474345Y303095D03*
D12*
X474345Y233095D03*
D13*
X474345Y251585D03*
X474345Y284605D03*
D11*
X502920Y287855D03*
D12*
X502920Y217855D03*
D13*
X502920Y236345D03*
X502920Y269365D03*
D11*
X531495Y272615D03*
D12*
X531495Y202615D03*
D13*
X531495Y221105D03*
X531495Y254125D03*
D11*
X560070Y303405D03*
D12*
X560070Y233405D03*
D13*
X560070Y251895D03*
X560070Y284915D03*
D11*
X588645Y288165D03*
D12*
X588645Y218165D03*
D13*
X588645Y236655D03*
X588645Y269675D03*
D11*
X617220Y272925D03*
D12*
X617220Y202925D03*
D13*
X617220Y221415D03*
X617220Y254435D03*
D11*
X155500Y120125D03*
D12*
X225500Y120125D03*
D13*
X207010Y120125D03*
X173990Y120125D03*
D11*
X308368Y120125D03*
D12*
X378368Y120125D03*
D13*
X359878Y120125D03*
X326858Y120125D03*
D11*
X459492Y120125D03*
D12*
X529492Y120125D03*
D13*
X511002Y120125D03*
X477982Y120125D03*
D11*
X231700Y89003D03*
D12*
X301700Y89003D03*
D13*
X283210Y89003D03*
X250190Y89003D03*
D11*
X382969Y88841D03*
D12*
X452969Y88841D03*
D13*
X434479Y88841D03*
X401459Y88841D03*
D11*
X532777Y88770D03*
D12*
X602777Y88770D03*
D13*
X584287Y88770D03*
X551267Y88770D03*
D14*
X417125Y153607D03*
X391725Y153607D03*
X366325Y153607D03*
X340925Y153607D03*
X315525Y153607D03*
X290125Y153607D03*
X264725Y153607D03*
X239325Y153607D03*
X213925Y153607D03*
X188525Y153607D03*
X163125Y153607D03*
X137725Y153607D03*
X417125Y304807D03*
X391725Y304807D03*
X366325Y304807D03*
X340925Y304807D03*
X315525Y304807D03*
X290125Y304807D03*
X264725Y304807D03*
X239325Y304807D03*
X213925Y304807D03*
X188525Y304807D03*
X163125Y304807D03*
X137725Y304807D03*
D15*
X474345Y233095D02*
X474345Y178109D01*
X169156Y42156D02*
X152400Y25400D01*
X169156Y68092D02*
X190538Y89474D01*
X169156Y68092D02*
X169156Y42156D01*
X190538Y89474D02*
X190538Y128602D01*
X195286Y133350D02*
X405264Y133350D01*
X409074Y137160D02*
X433396Y137160D01*
X195286Y133350D02*
X190538Y128602D01*
X405264Y133350D02*
X409074Y137160D01*
X433396Y137160D02*
X474345Y178109D01*
X384847Y106504D02*
X369843Y106504D01*
X342900Y79560D02*
X342900Y25400D01*
X342900Y79560D02*
X369843Y106504D01*
X412440Y134097D02*
X434643Y134097D01*
X502920Y202374D01*
X502920Y217855D01*
X412440Y134097D02*
X384847Y106504D01*
X533373Y25427D02*
X533400Y25400D01*
X533373Y25427D02*
X507248Y25427D01*
X507203Y25472D01*
D16*
X507203Y25472D03*
X476883Y25408D03*
D15*
X476883Y58728D01*
X469539Y66072D01*
X359288Y66072D01*
X346505Y78855D01*
X371106Y103456D01*
X408312Y103456D01*
X507415Y202615D02*
X531495Y202615D01*
X507415Y202558D02*
X408312Y103456D01*
X507415Y202558D02*
X507415Y202615D01*
D16*
X298124Y72201D03*
X368692Y72253D03*
D15*
X410724Y72253D01*
X416611Y78140D02*
X416611Y107375D01*
X447522Y138286D01*
X559045Y138286D01*
X560203Y139444D01*
X560203Y233272D01*
X560070Y233405D01*
X416611Y78140D02*
X410724Y72253D01*
X152400Y-165100D02*
X132781Y-165100D01*
X125796Y-158115D01*
X125796Y-120801D01*
X148596Y-98001D01*
X188250Y-98001D01*
X264176Y-22074D02*
X264176Y47168D01*
X289210Y72201D01*
X298124Y72201D01*
X264176Y-22074D02*
X188250Y-98001D01*
X419700Y80108D02*
X419700Y106009D01*
X448613Y134923D01*
X586136Y134923D01*
X588504Y218024D02*
X588645Y218165D01*
X588504Y137290D02*
X586136Y134923D01*
X588504Y137290D02*
X588504Y218024D01*
X471388Y-118612D02*
X389388Y-118612D01*
X342900Y-165100D01*
X471388Y-118612D02*
X487097Y-102903D01*
X487097Y70038D01*
X484812Y72324D01*
X427485Y72324D02*
X419700Y80108D01*
X427485Y72324D02*
X484812Y72324D01*
X496499Y-128199D02*
X533400Y-165100D01*
X584274Y107331D02*
X617220Y140277D01*
X617220Y202925D01*
X496499Y94488D02*
X496499Y-128199D01*
X496499Y94488D02*
X509341Y107331D01*
X584274Y107331D01*
X258080Y-19549D02*
X185724Y-91905D01*
X258080Y-19549D02*
X258080Y49693D01*
X267624Y59237D02*
X267624Y96231D01*
X267624Y59237D02*
X258080Y49693D01*
X267624Y96231D02*
X243730Y120125D01*
X225500Y120125D01*
X152400Y-338717D02*
X152400Y-355600D01*
X152400Y-338717D02*
X119700Y-306017D01*
X119700Y-118276D01*
X146071Y-91905D01*
X185724Y-91905D01*
X342900Y-297180D02*
X342900Y-355600D01*
X342900Y-297180D02*
X310006Y-264286D01*
X378368Y119399D02*
X378368Y120125D01*
X378368Y119399D02*
X338261Y79292D01*
X316807Y79292D01*
X310006Y72490D01*
X310006Y-264286D01*
X533400Y-342590D02*
X533400Y-355600D01*
X533400Y-342590D02*
X493347Y-302537D01*
X493347Y95649D01*
X517823Y120125D02*
X529492Y120125D01*
X517823Y120125D02*
X493347Y95649D01*
X122748Y-119538D02*
X122748Y-304755D01*
X122748Y-119538D02*
X147333Y-94953D01*
X186987Y-94953D01*
X261128Y-20812D02*
X261128Y48431D01*
X261128Y-20812D02*
X186987Y-94953D01*
X261128Y48431D02*
X301700Y89003D01*
X158896Y-539604D02*
X152400Y-546100D01*
X158896Y-539604D02*
X158896Y-376018D01*
X167386Y-367528D02*
X167386Y-349393D01*
X122748Y-304755D01*
X167386Y-367528D02*
X158896Y-376018D01*
X452969Y88841D02*
X480298Y88841D01*
X490176Y78963D01*
X448202Y-453340D02*
X384860Y-453340D01*
X342900Y-495300D01*
X342900Y-546100D01*
X490176Y-411365D02*
X490176Y78963D01*
X490176Y-411365D02*
X448202Y-453340D01*
X643021Y41196D02*
X602777Y81440D01*
X602777Y88770D01*
X540000Y-452000D02*
X533400Y-458600D01*
X540000Y-452000D02*
X639000Y-452000D01*
X643021Y-447979D01*
X533400Y-458600D02*
X533400Y-546100D01*
X643021Y-447979D02*
X643021Y41196D01*
D16*
X162900Y80000D03*
D15*
X162900Y93600D01*
X150000Y106500D01*
X145500Y106500D01*
X141700Y110300D01*
X141700Y141100D01*
X126800Y141100D01*
X117832Y150069D01*
X117832Y173700D01*
D16*
X117832Y173700D03*
D15*
X594861Y104283D02*
X630919Y140341D01*
X598402Y317998D02*
X366325Y317998D01*
X630919Y285481D02*
X630919Y140341D01*
X630919Y285481D02*
X598402Y317998D01*
X596900Y50800D02*
X586267Y50800D01*
X567733Y100295D02*
X571721Y104283D01*
X594861Y104283D01*
X567733Y69334D02*
X586267Y50800D01*
X567733Y69334D02*
X567733Y100295D01*
X366325Y304807D02*
X366325Y304807D01*
X366325Y317998D01*
M02*
