G04 EAGLE Gerber RS-274X export*
G75*
%MOMM*%
%FSLAX34Y34*%
%LPD*%
%INSoldermask Bottom*%
%IPNEG*%
%AMOC8*
5,1,8,0,0,1.08239X$1,22.5*%
G01*
%ADD10C,4.203200*%
%ADD11C,1.903200*%
%ADD12C,2.743200*%
%ADD13R,2.103200X2.103200*%
%ADD14C,2.103200*%
%ADD15R,1.600200X1.600200*%
%ADD16C,2.203200*%
%ADD17C,2.603200*%
%ADD18C,4.000000*%
%ADD19C,0.959600*%


D10*
X190500Y0D03*
D11*
X139700Y0D03*
X241300Y0D03*
D12*
X152400Y25400D03*
X215900Y50800D03*
D10*
X381000Y0D03*
D11*
X330200Y0D03*
X431800Y0D03*
D12*
X342900Y25400D03*
X406400Y50800D03*
D10*
X571500Y0D03*
D11*
X520700Y0D03*
X622300Y0D03*
D12*
X533400Y25400D03*
X596900Y50800D03*
D10*
X190500Y-190500D03*
D11*
X139700Y-190500D03*
X241300Y-190500D03*
D12*
X152400Y-165100D03*
X215900Y-139700D03*
D10*
X381000Y-190500D03*
D11*
X330200Y-190500D03*
X431800Y-190500D03*
D12*
X342900Y-165100D03*
X406400Y-139700D03*
D10*
X571500Y-190500D03*
D11*
X520700Y-190500D03*
X622300Y-190500D03*
D12*
X533400Y-165100D03*
X596900Y-139700D03*
D10*
X190500Y-381000D03*
D11*
X139700Y-381000D03*
X241300Y-381000D03*
D12*
X152400Y-355600D03*
X215900Y-330200D03*
D10*
X381000Y-381000D03*
D11*
X330200Y-381000D03*
X431800Y-381000D03*
D12*
X342900Y-355600D03*
X406400Y-330200D03*
D10*
X571500Y-381000D03*
D11*
X520700Y-381000D03*
X622300Y-381000D03*
D12*
X533400Y-355600D03*
X596900Y-330200D03*
D10*
X190500Y-571500D03*
D11*
X139700Y-571500D03*
X241300Y-571500D03*
D12*
X152400Y-546100D03*
X215900Y-520700D03*
D10*
X381000Y-571500D03*
D11*
X330200Y-571500D03*
X431800Y-571500D03*
D12*
X342900Y-546100D03*
X406400Y-520700D03*
D10*
X571500Y-571500D03*
D11*
X520700Y-571500D03*
X622300Y-571500D03*
D12*
X533400Y-546100D03*
X596900Y-520700D03*
D13*
X474345Y303095D03*
D14*
X474345Y233095D03*
D15*
X474345Y251585D03*
X474345Y284605D03*
D13*
X502920Y287855D03*
D14*
X502920Y217855D03*
D15*
X502920Y236345D03*
X502920Y269365D03*
D13*
X531495Y272615D03*
D14*
X531495Y202615D03*
D15*
X531495Y221105D03*
X531495Y254125D03*
D13*
X560070Y303405D03*
D14*
X560070Y233405D03*
D15*
X560070Y251895D03*
X560070Y284915D03*
D13*
X588645Y288165D03*
D14*
X588645Y218165D03*
D15*
X588645Y236655D03*
X588645Y269675D03*
D13*
X617220Y272925D03*
D14*
X617220Y202925D03*
D15*
X617220Y221415D03*
X617220Y254435D03*
D13*
X155500Y120125D03*
D14*
X225500Y120125D03*
D15*
X207010Y120125D03*
X173990Y120125D03*
D13*
X308368Y120125D03*
D14*
X378368Y120125D03*
D15*
X359878Y120125D03*
X326858Y120125D03*
D13*
X459492Y120125D03*
D14*
X529492Y120125D03*
D15*
X511002Y120125D03*
X477982Y120125D03*
D13*
X231700Y89003D03*
D14*
X301700Y89003D03*
D15*
X283210Y89003D03*
X250190Y89003D03*
D13*
X382969Y88841D03*
D14*
X452969Y88841D03*
D15*
X434479Y88841D03*
X401459Y88841D03*
D13*
X532777Y88770D03*
D14*
X602777Y88770D03*
D15*
X584287Y88770D03*
X551267Y88770D03*
D16*
X417125Y153607D03*
X391725Y153607D03*
X366325Y153607D03*
X340925Y153607D03*
X315525Y153607D03*
X290125Y153607D03*
X264725Y153607D03*
X239325Y153607D03*
X213925Y153607D03*
X188525Y153607D03*
X163125Y153607D03*
X137725Y153607D03*
X417125Y304807D03*
X391725Y304807D03*
X366325Y304807D03*
X340925Y304807D03*
X315525Y304807D03*
X290125Y304807D03*
X264725Y304807D03*
X239325Y304807D03*
X213925Y304807D03*
X188525Y304807D03*
X163125Y304807D03*
X137725Y304807D03*
D17*
X636900Y90000D03*
D18*
X636900Y90000D03*
D17*
X125000Y90700D03*
D18*
X125000Y90700D03*
D17*
X636000Y-475000D03*
D18*
X636000Y-475000D03*
D17*
X126000Y-475000D03*
D18*
X126000Y-475000D03*
D19*
X507203Y25472D03*
X476883Y25408D03*
X298124Y72201D03*
X368692Y72253D03*
X162900Y80000D03*
X117832Y173700D03*
M02*
