M48
;GenerationSoftware,Autodesk,EAGLE,9.6.2*%
;CreationDate,2021-01-02T01:49:06Z*%
FMAT,2
ICI,OFF
METRIC,TZ,000.000
T6C0.350
T5C1.000
T4C1.300
T3C1.700
T2C2.400
T1C4.000
%
G90
M71
T1
X57150Y-38100
X19050Y0
X57150Y0
X38100Y-19050
X38100Y0
X57150Y-19050
X19050Y-19050
X19050Y-38100
X38100Y-38100
X19050Y-57150
X38100Y-57150
X57150Y-57150
T2
X64100Y9000
X12100Y9000
X64100Y-47500
X12100Y-47500
T3
X13970Y-19050
X24130Y-19050
X33020Y-19050
X43180Y-19050
X52070Y-19050
X62230Y-19050
X13970Y0
X13970Y-38100
X24130Y-38100
X24130Y0
X33020Y-38100
X43180Y-38100
X33020Y0
X52070Y-38100
X62230Y-38100
X43180Y0
X13970Y-57150
X24130Y-57150
X52070Y0
X33020Y-57150
X43180Y-57150
X62230Y0
X52070Y-57150
X62230Y-57150
T4
X34290Y-54610
X40640Y-52070
X53340Y-54610
X59690Y-52070
X15240Y2540
X21590Y5080
X34290Y2540
X40640Y5080
X53340Y2540
X59690Y5080
X15240Y-16510
X21590Y-13970
X34290Y-16510
X40640Y-13970
X53340Y-16510
X59690Y-13970
X15240Y-35560
X21590Y-33020
X34290Y-35560
X40640Y-33020
X53340Y-35560
X59690Y-33020
X15240Y-54610
X21590Y-52070
T5
X50292Y28785
X21393Y30481
X18853Y30481
X16312Y30481
X47434Y30309
X47434Y23309
X58864Y28816
X50292Y21786
X53149Y27261
X53149Y20262
X56007Y30340
X56007Y23340
X13772Y30481
X58864Y21817
X61722Y27292
X61722Y20293
X15550Y12012
X22550Y12012
X30885Y12012
X37885Y12012
X46030Y12012
X53030Y12012
X23170Y8900
X30170Y8900
X38410Y8900
X45410Y8900
X53650Y8900
X60650Y8900
X41713Y15361
X39173Y15361
X36633Y15361
X34093Y15361
X31552Y15361
X29012Y15361
X26472Y15361
X23932Y15361
X21393Y15361
X18853Y15361
X16312Y15361
X13772Y15361
X41713Y30481
X39173Y30481
X36633Y30481
X34093Y30481
X31552Y30481
X29012Y30481
X26472Y30481
X23932Y30481
T6
X29812Y7220
X36869Y7225
X50292Y2477
X48098Y2471
M30