G04 #@! TF.GenerationSoftware,KiCad,Pcbnew,(5.1.4)-1*
G04 #@! TF.CreationDate,2021-01-08T16:05:27-05:00*
G04 #@! TF.ProjectId,plate,706c6174-652e-46b6-9963-61645f706362,rev?*
G04 #@! TF.SameCoordinates,Original*
G04 #@! TF.FileFunction,Copper,L1,Top*
G04 #@! TF.FilePolarity,Positive*
%FSLAX46Y46*%
G04 Gerber Fmt 4.6, Leading zero omitted, Abs format (unit mm)*
G04 Created by KiCad (PCBNEW (5.1.4)-1) date 2021-01-08 16:05:27*
%MOMM*%
%LPD*%
G04 APERTURE LIST*
%ADD10C,0.800000*%
%ADD11C,0.254000*%
G04 APERTURE END LIST*
D10*
X11430000Y8890000D03*
X64770000Y8890000D03*
D11*
G36*
X44902395Y-49420843D02*
G01*
X45094765Y-49472388D01*
X45275260Y-49556555D01*
X45438390Y-49670780D01*
X45579220Y-49811610D01*
X45693445Y-49974740D01*
X45777612Y-50155235D01*
X45829157Y-50347605D01*
X45847000Y-50551548D01*
X45847000Y-63748452D01*
X45829157Y-63952395D01*
X45777612Y-64144765D01*
X45693445Y-64325260D01*
X45579220Y-64488390D01*
X45438390Y-64629220D01*
X45275260Y-64743445D01*
X45094765Y-64827612D01*
X44902395Y-64879157D01*
X44698452Y-64897000D01*
X31501548Y-64897000D01*
X31297605Y-64879157D01*
X31105235Y-64827612D01*
X30924740Y-64743445D01*
X30761610Y-64629220D01*
X30620780Y-64488390D01*
X30506555Y-64325260D01*
X30422388Y-64144765D01*
X30370843Y-63952395D01*
X30353000Y-63748452D01*
X30353000Y-50638853D01*
X30873000Y-50638853D01*
X30873001Y-63661148D01*
X30873968Y-63670962D01*
X30873946Y-63674065D01*
X30874255Y-63677219D01*
X30884456Y-63774267D01*
X30888589Y-63794402D01*
X30892448Y-63814631D01*
X30893364Y-63817665D01*
X30922220Y-63910883D01*
X30930181Y-63929821D01*
X30937900Y-63948928D01*
X30939388Y-63951726D01*
X30985801Y-64037563D01*
X30997302Y-64054615D01*
X31008572Y-64071836D01*
X31010575Y-64074292D01*
X31072777Y-64149480D01*
X31087370Y-64163972D01*
X31101769Y-64178676D01*
X31104205Y-64180691D01*
X31104212Y-64180698D01*
X31104220Y-64180703D01*
X31179832Y-64242372D01*
X31196936Y-64253736D01*
X31213947Y-64265384D01*
X31216735Y-64266891D01*
X31302896Y-64312703D01*
X31321904Y-64320537D01*
X31340826Y-64328647D01*
X31343852Y-64329583D01*
X31343856Y-64329585D01*
X31343860Y-64329586D01*
X31437272Y-64357789D01*
X31457434Y-64361782D01*
X31477581Y-64366064D01*
X31480727Y-64366394D01*
X31480730Y-64366395D01*
X31480733Y-64366395D01*
X31577850Y-64375917D01*
X31577857Y-64375917D01*
X31588852Y-64377000D01*
X44611147Y-64377000D01*
X44620971Y-64376032D01*
X44624064Y-64376054D01*
X44627218Y-64375745D01*
X44724266Y-64365544D01*
X44744401Y-64361411D01*
X44764630Y-64357552D01*
X44767664Y-64356636D01*
X44860882Y-64327780D01*
X44879820Y-64319819D01*
X44898927Y-64312100D01*
X44901725Y-64310612D01*
X44987562Y-64264199D01*
X45004614Y-64252698D01*
X45021835Y-64241428D01*
X45024291Y-64239425D01*
X45099479Y-64177223D01*
X45113971Y-64162630D01*
X45128675Y-64148231D01*
X45130690Y-64145795D01*
X45130697Y-64145788D01*
X45130702Y-64145780D01*
X45192371Y-64070168D01*
X45203735Y-64053064D01*
X45215383Y-64036053D01*
X45216890Y-64033265D01*
X45262702Y-63947104D01*
X45270536Y-63928096D01*
X45278646Y-63909174D01*
X45279583Y-63906146D01*
X45307788Y-63812728D01*
X45311781Y-63792566D01*
X45316063Y-63772419D01*
X45316394Y-63769267D01*
X45325916Y-63672150D01*
X45327000Y-63661148D01*
X45327000Y-50638852D01*
X45326031Y-50629019D01*
X45326053Y-50625936D01*
X45325744Y-50622782D01*
X45315544Y-50525733D01*
X45311405Y-50505574D01*
X45307551Y-50485369D01*
X45306635Y-50482335D01*
X45277779Y-50389116D01*
X45269799Y-50370132D01*
X45262098Y-50351072D01*
X45260616Y-50348284D01*
X45260612Y-50348276D01*
X45260607Y-50348269D01*
X45214198Y-50262436D01*
X45202685Y-50245367D01*
X45191427Y-50228164D01*
X45189424Y-50225708D01*
X45127222Y-50150519D01*
X45112610Y-50136008D01*
X45098230Y-50121324D01*
X45095794Y-50119309D01*
X45095787Y-50119302D01*
X45095779Y-50119297D01*
X45020167Y-50057628D01*
X45003063Y-50046264D01*
X44986052Y-50034616D01*
X44983264Y-50033109D01*
X44897103Y-49987297D01*
X44878095Y-49979463D01*
X44859173Y-49971353D01*
X44856145Y-49970416D01*
X44856147Y-49970416D01*
X44856139Y-49970414D01*
X44762727Y-49942211D01*
X44742565Y-49938218D01*
X44722418Y-49933936D01*
X44719271Y-49933605D01*
X44719267Y-49933605D01*
X44622149Y-49924083D01*
X44622142Y-49924083D01*
X44611147Y-49923000D01*
X31588852Y-49923000D01*
X31579028Y-49923968D01*
X31575936Y-49923946D01*
X31572782Y-49924255D01*
X31475733Y-49934455D01*
X31455574Y-49938594D01*
X31435369Y-49942448D01*
X31432335Y-49943364D01*
X31339116Y-49972220D01*
X31320132Y-49980200D01*
X31301072Y-49987901D01*
X31298284Y-49989383D01*
X31298276Y-49989387D01*
X31298269Y-49989392D01*
X31212436Y-50035801D01*
X31195367Y-50047314D01*
X31178164Y-50058572D01*
X31175708Y-50060575D01*
X31100519Y-50122777D01*
X31086008Y-50137389D01*
X31071324Y-50151769D01*
X31069309Y-50154205D01*
X31069302Y-50154212D01*
X31069297Y-50154220D01*
X31007628Y-50229832D01*
X30996264Y-50246936D01*
X30984616Y-50263947D01*
X30983109Y-50266735D01*
X30937297Y-50352896D01*
X30929463Y-50371904D01*
X30921353Y-50390826D01*
X30920416Y-50393854D01*
X30892211Y-50487272D01*
X30888218Y-50507434D01*
X30883936Y-50527581D01*
X30883605Y-50530732D01*
X30874083Y-50627850D01*
X30874083Y-50627858D01*
X30873000Y-50638853D01*
X30353000Y-50638853D01*
X30353000Y-50551548D01*
X30370843Y-50347605D01*
X30422388Y-50155235D01*
X30506555Y-49974740D01*
X30620780Y-49811610D01*
X30761610Y-49670780D01*
X30924740Y-49556555D01*
X31105235Y-49472388D01*
X31297605Y-49420843D01*
X31501548Y-49403000D01*
X44698452Y-49403000D01*
X44902395Y-49420843D01*
X44902395Y-49420843D01*
G37*
X44902395Y-49420843D02*
X45094765Y-49472388D01*
X45275260Y-49556555D01*
X45438390Y-49670780D01*
X45579220Y-49811610D01*
X45693445Y-49974740D01*
X45777612Y-50155235D01*
X45829157Y-50347605D01*
X45847000Y-50551548D01*
X45847000Y-63748452D01*
X45829157Y-63952395D01*
X45777612Y-64144765D01*
X45693445Y-64325260D01*
X45579220Y-64488390D01*
X45438390Y-64629220D01*
X45275260Y-64743445D01*
X45094765Y-64827612D01*
X44902395Y-64879157D01*
X44698452Y-64897000D01*
X31501548Y-64897000D01*
X31297605Y-64879157D01*
X31105235Y-64827612D01*
X30924740Y-64743445D01*
X30761610Y-64629220D01*
X30620780Y-64488390D01*
X30506555Y-64325260D01*
X30422388Y-64144765D01*
X30370843Y-63952395D01*
X30353000Y-63748452D01*
X30353000Y-50638853D01*
X30873000Y-50638853D01*
X30873001Y-63661148D01*
X30873968Y-63670962D01*
X30873946Y-63674065D01*
X30874255Y-63677219D01*
X30884456Y-63774267D01*
X30888589Y-63794402D01*
X30892448Y-63814631D01*
X30893364Y-63817665D01*
X30922220Y-63910883D01*
X30930181Y-63929821D01*
X30937900Y-63948928D01*
X30939388Y-63951726D01*
X30985801Y-64037563D01*
X30997302Y-64054615D01*
X31008572Y-64071836D01*
X31010575Y-64074292D01*
X31072777Y-64149480D01*
X31087370Y-64163972D01*
X31101769Y-64178676D01*
X31104205Y-64180691D01*
X31104212Y-64180698D01*
X31104220Y-64180703D01*
X31179832Y-64242372D01*
X31196936Y-64253736D01*
X31213947Y-64265384D01*
X31216735Y-64266891D01*
X31302896Y-64312703D01*
X31321904Y-64320537D01*
X31340826Y-64328647D01*
X31343852Y-64329583D01*
X31343856Y-64329585D01*
X31343860Y-64329586D01*
X31437272Y-64357789D01*
X31457434Y-64361782D01*
X31477581Y-64366064D01*
X31480727Y-64366394D01*
X31480730Y-64366395D01*
X31480733Y-64366395D01*
X31577850Y-64375917D01*
X31577857Y-64375917D01*
X31588852Y-64377000D01*
X44611147Y-64377000D01*
X44620971Y-64376032D01*
X44624064Y-64376054D01*
X44627218Y-64375745D01*
X44724266Y-64365544D01*
X44744401Y-64361411D01*
X44764630Y-64357552D01*
X44767664Y-64356636D01*
X44860882Y-64327780D01*
X44879820Y-64319819D01*
X44898927Y-64312100D01*
X44901725Y-64310612D01*
X44987562Y-64264199D01*
X45004614Y-64252698D01*
X45021835Y-64241428D01*
X45024291Y-64239425D01*
X45099479Y-64177223D01*
X45113971Y-64162630D01*
X45128675Y-64148231D01*
X45130690Y-64145795D01*
X45130697Y-64145788D01*
X45130702Y-64145780D01*
X45192371Y-64070168D01*
X45203735Y-64053064D01*
X45215383Y-64036053D01*
X45216890Y-64033265D01*
X45262702Y-63947104D01*
X45270536Y-63928096D01*
X45278646Y-63909174D01*
X45279583Y-63906146D01*
X45307788Y-63812728D01*
X45311781Y-63792566D01*
X45316063Y-63772419D01*
X45316394Y-63769267D01*
X45325916Y-63672150D01*
X45327000Y-63661148D01*
X45327000Y-50638852D01*
X45326031Y-50629019D01*
X45326053Y-50625936D01*
X45325744Y-50622782D01*
X45315544Y-50525733D01*
X45311405Y-50505574D01*
X45307551Y-50485369D01*
X45306635Y-50482335D01*
X45277779Y-50389116D01*
X45269799Y-50370132D01*
X45262098Y-50351072D01*
X45260616Y-50348284D01*
X45260612Y-50348276D01*
X45260607Y-50348269D01*
X45214198Y-50262436D01*
X45202685Y-50245367D01*
X45191427Y-50228164D01*
X45189424Y-50225708D01*
X45127222Y-50150519D01*
X45112610Y-50136008D01*
X45098230Y-50121324D01*
X45095794Y-50119309D01*
X45095787Y-50119302D01*
X45095779Y-50119297D01*
X45020167Y-50057628D01*
X45003063Y-50046264D01*
X44986052Y-50034616D01*
X44983264Y-50033109D01*
X44897103Y-49987297D01*
X44878095Y-49979463D01*
X44859173Y-49971353D01*
X44856145Y-49970416D01*
X44856147Y-49970416D01*
X44856139Y-49970414D01*
X44762727Y-49942211D01*
X44742565Y-49938218D01*
X44722418Y-49933936D01*
X44719271Y-49933605D01*
X44719267Y-49933605D01*
X44622149Y-49924083D01*
X44622142Y-49924083D01*
X44611147Y-49923000D01*
X31588852Y-49923000D01*
X31579028Y-49923968D01*
X31575936Y-49923946D01*
X31572782Y-49924255D01*
X31475733Y-49934455D01*
X31455574Y-49938594D01*
X31435369Y-49942448D01*
X31432335Y-49943364D01*
X31339116Y-49972220D01*
X31320132Y-49980200D01*
X31301072Y-49987901D01*
X31298284Y-49989383D01*
X31298276Y-49989387D01*
X31298269Y-49989392D01*
X31212436Y-50035801D01*
X31195367Y-50047314D01*
X31178164Y-50058572D01*
X31175708Y-50060575D01*
X31100519Y-50122777D01*
X31086008Y-50137389D01*
X31071324Y-50151769D01*
X31069309Y-50154205D01*
X31069302Y-50154212D01*
X31069297Y-50154220D01*
X31007628Y-50229832D01*
X30996264Y-50246936D01*
X30984616Y-50263947D01*
X30983109Y-50266735D01*
X30937297Y-50352896D01*
X30929463Y-50371904D01*
X30921353Y-50390826D01*
X30920416Y-50393854D01*
X30892211Y-50487272D01*
X30888218Y-50507434D01*
X30883936Y-50527581D01*
X30883605Y-50530732D01*
X30874083Y-50627850D01*
X30874083Y-50627858D01*
X30873000Y-50638853D01*
X30353000Y-50638853D01*
X30353000Y-50551548D01*
X30370843Y-50347605D01*
X30422388Y-50155235D01*
X30506555Y-49974740D01*
X30620780Y-49811610D01*
X30761610Y-49670780D01*
X30924740Y-49556555D01*
X31105235Y-49472388D01*
X31297605Y-49420843D01*
X31501548Y-49403000D01*
X44698452Y-49403000D01*
X44902395Y-49420843D01*
G36*
X25852395Y-30370843D02*
G01*
X26044765Y-30422388D01*
X26225260Y-30506555D01*
X26388390Y-30620780D01*
X26529220Y-30761610D01*
X26643445Y-30924740D01*
X26727612Y-31105235D01*
X26779157Y-31297605D01*
X26797000Y-31501548D01*
X26797000Y-44698452D01*
X26779157Y-44902395D01*
X26727612Y-45094765D01*
X26643445Y-45275260D01*
X26529220Y-45438390D01*
X26388390Y-45579220D01*
X26225260Y-45693445D01*
X26044765Y-45777612D01*
X25852395Y-45829157D01*
X25648452Y-45847000D01*
X12451548Y-45847000D01*
X12247605Y-45829157D01*
X12055235Y-45777612D01*
X11874740Y-45693445D01*
X11711610Y-45579220D01*
X11570780Y-45438390D01*
X11456555Y-45275260D01*
X11372388Y-45094765D01*
X11320843Y-44902395D01*
X11303000Y-44698452D01*
X11303000Y-31588853D01*
X11823000Y-31588853D01*
X11823001Y-44611147D01*
X11823968Y-44620961D01*
X11823946Y-44624064D01*
X11824255Y-44627218D01*
X11834456Y-44724266D01*
X11838589Y-44744401D01*
X11842448Y-44764630D01*
X11843364Y-44767664D01*
X11872220Y-44860882D01*
X11880181Y-44879820D01*
X11887900Y-44898927D01*
X11889388Y-44901725D01*
X11935801Y-44987562D01*
X11947302Y-45004614D01*
X11958572Y-45021835D01*
X11960575Y-45024291D01*
X12022777Y-45099479D01*
X12037370Y-45113971D01*
X12051769Y-45128675D01*
X12054205Y-45130690D01*
X12054212Y-45130697D01*
X12054220Y-45130702D01*
X12129832Y-45192371D01*
X12146936Y-45203735D01*
X12163947Y-45215383D01*
X12166735Y-45216890D01*
X12252896Y-45262702D01*
X12271904Y-45270536D01*
X12290826Y-45278646D01*
X12293852Y-45279582D01*
X12293856Y-45279584D01*
X12293860Y-45279585D01*
X12387272Y-45307788D01*
X12407434Y-45311781D01*
X12427581Y-45316063D01*
X12430727Y-45316393D01*
X12430730Y-45316394D01*
X12430733Y-45316394D01*
X12527047Y-45325837D01*
X12538852Y-45327000D01*
X25561148Y-45327000D01*
X25570981Y-45326031D01*
X25574065Y-45326053D01*
X25577219Y-45325744D01*
X25674267Y-45315543D01*
X25694402Y-45311410D01*
X25714631Y-45307551D01*
X25717665Y-45306635D01*
X25810883Y-45277779D01*
X25829821Y-45269818D01*
X25848928Y-45262099D01*
X25851726Y-45260611D01*
X25937563Y-45214198D01*
X25954615Y-45202697D01*
X25971836Y-45191427D01*
X25974292Y-45189424D01*
X26049480Y-45127222D01*
X26063972Y-45112629D01*
X26078676Y-45098230D01*
X26080691Y-45095794D01*
X26080698Y-45095787D01*
X26080703Y-45095779D01*
X26142372Y-45020167D01*
X26153736Y-45003063D01*
X26165384Y-44986052D01*
X26166891Y-44983264D01*
X26212703Y-44897103D01*
X26220537Y-44878095D01*
X26228647Y-44859173D01*
X26229584Y-44856145D01*
X26257789Y-44762727D01*
X26261782Y-44742565D01*
X26266064Y-44722418D01*
X26266395Y-44719266D01*
X26275917Y-44622149D01*
X26275917Y-44622142D01*
X26277000Y-44611147D01*
X26277000Y-31588852D01*
X26276032Y-31579028D01*
X26276054Y-31575936D01*
X26275745Y-31572782D01*
X26265545Y-31475733D01*
X26261406Y-31455574D01*
X26257552Y-31435369D01*
X26256636Y-31432335D01*
X26227780Y-31339116D01*
X26219800Y-31320132D01*
X26212099Y-31301072D01*
X26210617Y-31298284D01*
X26210613Y-31298276D01*
X26210608Y-31298269D01*
X26164199Y-31212436D01*
X26152686Y-31195367D01*
X26141428Y-31178164D01*
X26139425Y-31175708D01*
X26077223Y-31100519D01*
X26062611Y-31086008D01*
X26048231Y-31071324D01*
X26045795Y-31069309D01*
X26045788Y-31069302D01*
X26045780Y-31069297D01*
X25970168Y-31007628D01*
X25953064Y-30996264D01*
X25936053Y-30984616D01*
X25933265Y-30983109D01*
X25847104Y-30937297D01*
X25828096Y-30929463D01*
X25809174Y-30921353D01*
X25806146Y-30920416D01*
X25806148Y-30920416D01*
X25806140Y-30920414D01*
X25712728Y-30892211D01*
X25692566Y-30888218D01*
X25672419Y-30883936D01*
X25669272Y-30883605D01*
X25669268Y-30883605D01*
X25572150Y-30874083D01*
X25572143Y-30874083D01*
X25561148Y-30873000D01*
X12538852Y-30873000D01*
X12529028Y-30873968D01*
X12525936Y-30873946D01*
X12522782Y-30874255D01*
X12425733Y-30884455D01*
X12405574Y-30888594D01*
X12385369Y-30892448D01*
X12382335Y-30893364D01*
X12289116Y-30922220D01*
X12270132Y-30930200D01*
X12251072Y-30937901D01*
X12248284Y-30939383D01*
X12248276Y-30939387D01*
X12248269Y-30939392D01*
X12162436Y-30985801D01*
X12145367Y-30997314D01*
X12128164Y-31008572D01*
X12125708Y-31010575D01*
X12050519Y-31072777D01*
X12036008Y-31087389D01*
X12021324Y-31101769D01*
X12019309Y-31104205D01*
X12019302Y-31104212D01*
X12019297Y-31104220D01*
X11957628Y-31179832D01*
X11946264Y-31196936D01*
X11934616Y-31213947D01*
X11933109Y-31216735D01*
X11887297Y-31302896D01*
X11879463Y-31321904D01*
X11871353Y-31340826D01*
X11870416Y-31343854D01*
X11842211Y-31437272D01*
X11838218Y-31457434D01*
X11833936Y-31477581D01*
X11833605Y-31480732D01*
X11824083Y-31577850D01*
X11824083Y-31577858D01*
X11823000Y-31588853D01*
X11303000Y-31588853D01*
X11303000Y-31501548D01*
X11320843Y-31297605D01*
X11372388Y-31105235D01*
X11456555Y-30924740D01*
X11570780Y-30761610D01*
X11711610Y-30620780D01*
X11874740Y-30506555D01*
X12055235Y-30422388D01*
X12247605Y-30370843D01*
X12451548Y-30353000D01*
X25648452Y-30353000D01*
X25852395Y-30370843D01*
X25852395Y-30370843D01*
G37*
X25852395Y-30370843D02*
X26044765Y-30422388D01*
X26225260Y-30506555D01*
X26388390Y-30620780D01*
X26529220Y-30761610D01*
X26643445Y-30924740D01*
X26727612Y-31105235D01*
X26779157Y-31297605D01*
X26797000Y-31501548D01*
X26797000Y-44698452D01*
X26779157Y-44902395D01*
X26727612Y-45094765D01*
X26643445Y-45275260D01*
X26529220Y-45438390D01*
X26388390Y-45579220D01*
X26225260Y-45693445D01*
X26044765Y-45777612D01*
X25852395Y-45829157D01*
X25648452Y-45847000D01*
X12451548Y-45847000D01*
X12247605Y-45829157D01*
X12055235Y-45777612D01*
X11874740Y-45693445D01*
X11711610Y-45579220D01*
X11570780Y-45438390D01*
X11456555Y-45275260D01*
X11372388Y-45094765D01*
X11320843Y-44902395D01*
X11303000Y-44698452D01*
X11303000Y-31588853D01*
X11823000Y-31588853D01*
X11823001Y-44611147D01*
X11823968Y-44620961D01*
X11823946Y-44624064D01*
X11824255Y-44627218D01*
X11834456Y-44724266D01*
X11838589Y-44744401D01*
X11842448Y-44764630D01*
X11843364Y-44767664D01*
X11872220Y-44860882D01*
X11880181Y-44879820D01*
X11887900Y-44898927D01*
X11889388Y-44901725D01*
X11935801Y-44987562D01*
X11947302Y-45004614D01*
X11958572Y-45021835D01*
X11960575Y-45024291D01*
X12022777Y-45099479D01*
X12037370Y-45113971D01*
X12051769Y-45128675D01*
X12054205Y-45130690D01*
X12054212Y-45130697D01*
X12054220Y-45130702D01*
X12129832Y-45192371D01*
X12146936Y-45203735D01*
X12163947Y-45215383D01*
X12166735Y-45216890D01*
X12252896Y-45262702D01*
X12271904Y-45270536D01*
X12290826Y-45278646D01*
X12293852Y-45279582D01*
X12293856Y-45279584D01*
X12293860Y-45279585D01*
X12387272Y-45307788D01*
X12407434Y-45311781D01*
X12427581Y-45316063D01*
X12430727Y-45316393D01*
X12430730Y-45316394D01*
X12430733Y-45316394D01*
X12527047Y-45325837D01*
X12538852Y-45327000D01*
X25561148Y-45327000D01*
X25570981Y-45326031D01*
X25574065Y-45326053D01*
X25577219Y-45325744D01*
X25674267Y-45315543D01*
X25694402Y-45311410D01*
X25714631Y-45307551D01*
X25717665Y-45306635D01*
X25810883Y-45277779D01*
X25829821Y-45269818D01*
X25848928Y-45262099D01*
X25851726Y-45260611D01*
X25937563Y-45214198D01*
X25954615Y-45202697D01*
X25971836Y-45191427D01*
X25974292Y-45189424D01*
X26049480Y-45127222D01*
X26063972Y-45112629D01*
X26078676Y-45098230D01*
X26080691Y-45095794D01*
X26080698Y-45095787D01*
X26080703Y-45095779D01*
X26142372Y-45020167D01*
X26153736Y-45003063D01*
X26165384Y-44986052D01*
X26166891Y-44983264D01*
X26212703Y-44897103D01*
X26220537Y-44878095D01*
X26228647Y-44859173D01*
X26229584Y-44856145D01*
X26257789Y-44762727D01*
X26261782Y-44742565D01*
X26266064Y-44722418D01*
X26266395Y-44719266D01*
X26275917Y-44622149D01*
X26275917Y-44622142D01*
X26277000Y-44611147D01*
X26277000Y-31588852D01*
X26276032Y-31579028D01*
X26276054Y-31575936D01*
X26275745Y-31572782D01*
X26265545Y-31475733D01*
X26261406Y-31455574D01*
X26257552Y-31435369D01*
X26256636Y-31432335D01*
X26227780Y-31339116D01*
X26219800Y-31320132D01*
X26212099Y-31301072D01*
X26210617Y-31298284D01*
X26210613Y-31298276D01*
X26210608Y-31298269D01*
X26164199Y-31212436D01*
X26152686Y-31195367D01*
X26141428Y-31178164D01*
X26139425Y-31175708D01*
X26077223Y-31100519D01*
X26062611Y-31086008D01*
X26048231Y-31071324D01*
X26045795Y-31069309D01*
X26045788Y-31069302D01*
X26045780Y-31069297D01*
X25970168Y-31007628D01*
X25953064Y-30996264D01*
X25936053Y-30984616D01*
X25933265Y-30983109D01*
X25847104Y-30937297D01*
X25828096Y-30929463D01*
X25809174Y-30921353D01*
X25806146Y-30920416D01*
X25806148Y-30920416D01*
X25806140Y-30920414D01*
X25712728Y-30892211D01*
X25692566Y-30888218D01*
X25672419Y-30883936D01*
X25669272Y-30883605D01*
X25669268Y-30883605D01*
X25572150Y-30874083D01*
X25572143Y-30874083D01*
X25561148Y-30873000D01*
X12538852Y-30873000D01*
X12529028Y-30873968D01*
X12525936Y-30873946D01*
X12522782Y-30874255D01*
X12425733Y-30884455D01*
X12405574Y-30888594D01*
X12385369Y-30892448D01*
X12382335Y-30893364D01*
X12289116Y-30922220D01*
X12270132Y-30930200D01*
X12251072Y-30937901D01*
X12248284Y-30939383D01*
X12248276Y-30939387D01*
X12248269Y-30939392D01*
X12162436Y-30985801D01*
X12145367Y-30997314D01*
X12128164Y-31008572D01*
X12125708Y-31010575D01*
X12050519Y-31072777D01*
X12036008Y-31087389D01*
X12021324Y-31101769D01*
X12019309Y-31104205D01*
X12019302Y-31104212D01*
X12019297Y-31104220D01*
X11957628Y-31179832D01*
X11946264Y-31196936D01*
X11934616Y-31213947D01*
X11933109Y-31216735D01*
X11887297Y-31302896D01*
X11879463Y-31321904D01*
X11871353Y-31340826D01*
X11870416Y-31343854D01*
X11842211Y-31437272D01*
X11838218Y-31457434D01*
X11833936Y-31477581D01*
X11833605Y-31480732D01*
X11824083Y-31577850D01*
X11824083Y-31577858D01*
X11823000Y-31588853D01*
X11303000Y-31588853D01*
X11303000Y-31501548D01*
X11320843Y-31297605D01*
X11372388Y-31105235D01*
X11456555Y-30924740D01*
X11570780Y-30761610D01*
X11711610Y-30620780D01*
X11874740Y-30506555D01*
X12055235Y-30422388D01*
X12247605Y-30370843D01*
X12451548Y-30353000D01*
X25648452Y-30353000D01*
X25852395Y-30370843D01*
G36*
X44902395Y-30370843D02*
G01*
X45094765Y-30422388D01*
X45275260Y-30506555D01*
X45438390Y-30620780D01*
X45579220Y-30761610D01*
X45693445Y-30924740D01*
X45777612Y-31105235D01*
X45829157Y-31297605D01*
X45847000Y-31501548D01*
X45847000Y-44698452D01*
X45829157Y-44902395D01*
X45777612Y-45094765D01*
X45693445Y-45275260D01*
X45579220Y-45438390D01*
X45438390Y-45579220D01*
X45275260Y-45693445D01*
X45094765Y-45777612D01*
X44902395Y-45829157D01*
X44698452Y-45847000D01*
X31501548Y-45847000D01*
X31297605Y-45829157D01*
X31105235Y-45777612D01*
X30924740Y-45693445D01*
X30761610Y-45579220D01*
X30620780Y-45438390D01*
X30506555Y-45275260D01*
X30422388Y-45094765D01*
X30370843Y-44902395D01*
X30353000Y-44698452D01*
X30353000Y-31588853D01*
X30873000Y-31588853D01*
X30873001Y-44611147D01*
X30873968Y-44620961D01*
X30873946Y-44624064D01*
X30874255Y-44627218D01*
X30884456Y-44724266D01*
X30888589Y-44744401D01*
X30892448Y-44764630D01*
X30893364Y-44767664D01*
X30922220Y-44860882D01*
X30930181Y-44879820D01*
X30937900Y-44898927D01*
X30939388Y-44901725D01*
X30985801Y-44987562D01*
X30997302Y-45004614D01*
X31008572Y-45021835D01*
X31010575Y-45024291D01*
X31072777Y-45099479D01*
X31087370Y-45113971D01*
X31101769Y-45128675D01*
X31104205Y-45130690D01*
X31104212Y-45130697D01*
X31104220Y-45130702D01*
X31179832Y-45192371D01*
X31196936Y-45203735D01*
X31213947Y-45215383D01*
X31216735Y-45216890D01*
X31302896Y-45262702D01*
X31321904Y-45270536D01*
X31340826Y-45278646D01*
X31343852Y-45279582D01*
X31343856Y-45279584D01*
X31343860Y-45279585D01*
X31437272Y-45307788D01*
X31457434Y-45311781D01*
X31477581Y-45316063D01*
X31480727Y-45316393D01*
X31480730Y-45316394D01*
X31480733Y-45316394D01*
X31577047Y-45325837D01*
X31588852Y-45327000D01*
X44611147Y-45327000D01*
X44620980Y-45326031D01*
X44624064Y-45326053D01*
X44627218Y-45325744D01*
X44724266Y-45315543D01*
X44744401Y-45311410D01*
X44764630Y-45307551D01*
X44767664Y-45306635D01*
X44860882Y-45277779D01*
X44879820Y-45269818D01*
X44898927Y-45262099D01*
X44901725Y-45260611D01*
X44987562Y-45214198D01*
X45004614Y-45202697D01*
X45021835Y-45191427D01*
X45024291Y-45189424D01*
X45099479Y-45127222D01*
X45113971Y-45112629D01*
X45128675Y-45098230D01*
X45130690Y-45095794D01*
X45130697Y-45095787D01*
X45130702Y-45095779D01*
X45192371Y-45020167D01*
X45203735Y-45003063D01*
X45215383Y-44986052D01*
X45216890Y-44983264D01*
X45262702Y-44897103D01*
X45270536Y-44878095D01*
X45278646Y-44859173D01*
X45279583Y-44856145D01*
X45307788Y-44762727D01*
X45311781Y-44742565D01*
X45316063Y-44722418D01*
X45316394Y-44719266D01*
X45325916Y-44622149D01*
X45327000Y-44611147D01*
X45327000Y-31588852D01*
X45326031Y-31579019D01*
X45326053Y-31575936D01*
X45325744Y-31572782D01*
X45315544Y-31475733D01*
X45311405Y-31455574D01*
X45307551Y-31435369D01*
X45306635Y-31432335D01*
X45277779Y-31339116D01*
X45269799Y-31320132D01*
X45262098Y-31301072D01*
X45260616Y-31298284D01*
X45260612Y-31298276D01*
X45260607Y-31298269D01*
X45214198Y-31212436D01*
X45202685Y-31195367D01*
X45191427Y-31178164D01*
X45189424Y-31175708D01*
X45127222Y-31100519D01*
X45112610Y-31086008D01*
X45098230Y-31071324D01*
X45095794Y-31069309D01*
X45095787Y-31069302D01*
X45095779Y-31069297D01*
X45020167Y-31007628D01*
X45003063Y-30996264D01*
X44986052Y-30984616D01*
X44983264Y-30983109D01*
X44897103Y-30937297D01*
X44878095Y-30929463D01*
X44859173Y-30921353D01*
X44856145Y-30920416D01*
X44856147Y-30920416D01*
X44856139Y-30920414D01*
X44762727Y-30892211D01*
X44742565Y-30888218D01*
X44722418Y-30883936D01*
X44719271Y-30883605D01*
X44719267Y-30883605D01*
X44622149Y-30874083D01*
X44622142Y-30874083D01*
X44611147Y-30873000D01*
X31588852Y-30873000D01*
X31579028Y-30873968D01*
X31575936Y-30873946D01*
X31572782Y-30874255D01*
X31475733Y-30884455D01*
X31455574Y-30888594D01*
X31435369Y-30892448D01*
X31432335Y-30893364D01*
X31339116Y-30922220D01*
X31320132Y-30930200D01*
X31301072Y-30937901D01*
X31298284Y-30939383D01*
X31298276Y-30939387D01*
X31298269Y-30939392D01*
X31212436Y-30985801D01*
X31195367Y-30997314D01*
X31178164Y-31008572D01*
X31175708Y-31010575D01*
X31100519Y-31072777D01*
X31086008Y-31087389D01*
X31071324Y-31101769D01*
X31069309Y-31104205D01*
X31069302Y-31104212D01*
X31069297Y-31104220D01*
X31007628Y-31179832D01*
X30996264Y-31196936D01*
X30984616Y-31213947D01*
X30983109Y-31216735D01*
X30937297Y-31302896D01*
X30929463Y-31321904D01*
X30921353Y-31340826D01*
X30920416Y-31343854D01*
X30892211Y-31437272D01*
X30888218Y-31457434D01*
X30883936Y-31477581D01*
X30883605Y-31480732D01*
X30874083Y-31577850D01*
X30874083Y-31577858D01*
X30873000Y-31588853D01*
X30353000Y-31588853D01*
X30353000Y-31501548D01*
X30370843Y-31297605D01*
X30422388Y-31105235D01*
X30506555Y-30924740D01*
X30620780Y-30761610D01*
X30761610Y-30620780D01*
X30924740Y-30506555D01*
X31105235Y-30422388D01*
X31297605Y-30370843D01*
X31501548Y-30353000D01*
X44698452Y-30353000D01*
X44902395Y-30370843D01*
X44902395Y-30370843D01*
G37*
X44902395Y-30370843D02*
X45094765Y-30422388D01*
X45275260Y-30506555D01*
X45438390Y-30620780D01*
X45579220Y-30761610D01*
X45693445Y-30924740D01*
X45777612Y-31105235D01*
X45829157Y-31297605D01*
X45847000Y-31501548D01*
X45847000Y-44698452D01*
X45829157Y-44902395D01*
X45777612Y-45094765D01*
X45693445Y-45275260D01*
X45579220Y-45438390D01*
X45438390Y-45579220D01*
X45275260Y-45693445D01*
X45094765Y-45777612D01*
X44902395Y-45829157D01*
X44698452Y-45847000D01*
X31501548Y-45847000D01*
X31297605Y-45829157D01*
X31105235Y-45777612D01*
X30924740Y-45693445D01*
X30761610Y-45579220D01*
X30620780Y-45438390D01*
X30506555Y-45275260D01*
X30422388Y-45094765D01*
X30370843Y-44902395D01*
X30353000Y-44698452D01*
X30353000Y-31588853D01*
X30873000Y-31588853D01*
X30873001Y-44611147D01*
X30873968Y-44620961D01*
X30873946Y-44624064D01*
X30874255Y-44627218D01*
X30884456Y-44724266D01*
X30888589Y-44744401D01*
X30892448Y-44764630D01*
X30893364Y-44767664D01*
X30922220Y-44860882D01*
X30930181Y-44879820D01*
X30937900Y-44898927D01*
X30939388Y-44901725D01*
X30985801Y-44987562D01*
X30997302Y-45004614D01*
X31008572Y-45021835D01*
X31010575Y-45024291D01*
X31072777Y-45099479D01*
X31087370Y-45113971D01*
X31101769Y-45128675D01*
X31104205Y-45130690D01*
X31104212Y-45130697D01*
X31104220Y-45130702D01*
X31179832Y-45192371D01*
X31196936Y-45203735D01*
X31213947Y-45215383D01*
X31216735Y-45216890D01*
X31302896Y-45262702D01*
X31321904Y-45270536D01*
X31340826Y-45278646D01*
X31343852Y-45279582D01*
X31343856Y-45279584D01*
X31343860Y-45279585D01*
X31437272Y-45307788D01*
X31457434Y-45311781D01*
X31477581Y-45316063D01*
X31480727Y-45316393D01*
X31480730Y-45316394D01*
X31480733Y-45316394D01*
X31577047Y-45325837D01*
X31588852Y-45327000D01*
X44611147Y-45327000D01*
X44620980Y-45326031D01*
X44624064Y-45326053D01*
X44627218Y-45325744D01*
X44724266Y-45315543D01*
X44744401Y-45311410D01*
X44764630Y-45307551D01*
X44767664Y-45306635D01*
X44860882Y-45277779D01*
X44879820Y-45269818D01*
X44898927Y-45262099D01*
X44901725Y-45260611D01*
X44987562Y-45214198D01*
X45004614Y-45202697D01*
X45021835Y-45191427D01*
X45024291Y-45189424D01*
X45099479Y-45127222D01*
X45113971Y-45112629D01*
X45128675Y-45098230D01*
X45130690Y-45095794D01*
X45130697Y-45095787D01*
X45130702Y-45095779D01*
X45192371Y-45020167D01*
X45203735Y-45003063D01*
X45215383Y-44986052D01*
X45216890Y-44983264D01*
X45262702Y-44897103D01*
X45270536Y-44878095D01*
X45278646Y-44859173D01*
X45279583Y-44856145D01*
X45307788Y-44762727D01*
X45311781Y-44742565D01*
X45316063Y-44722418D01*
X45316394Y-44719266D01*
X45325916Y-44622149D01*
X45327000Y-44611147D01*
X45327000Y-31588852D01*
X45326031Y-31579019D01*
X45326053Y-31575936D01*
X45325744Y-31572782D01*
X45315544Y-31475733D01*
X45311405Y-31455574D01*
X45307551Y-31435369D01*
X45306635Y-31432335D01*
X45277779Y-31339116D01*
X45269799Y-31320132D01*
X45262098Y-31301072D01*
X45260616Y-31298284D01*
X45260612Y-31298276D01*
X45260607Y-31298269D01*
X45214198Y-31212436D01*
X45202685Y-31195367D01*
X45191427Y-31178164D01*
X45189424Y-31175708D01*
X45127222Y-31100519D01*
X45112610Y-31086008D01*
X45098230Y-31071324D01*
X45095794Y-31069309D01*
X45095787Y-31069302D01*
X45095779Y-31069297D01*
X45020167Y-31007628D01*
X45003063Y-30996264D01*
X44986052Y-30984616D01*
X44983264Y-30983109D01*
X44897103Y-30937297D01*
X44878095Y-30929463D01*
X44859173Y-30921353D01*
X44856145Y-30920416D01*
X44856147Y-30920416D01*
X44856139Y-30920414D01*
X44762727Y-30892211D01*
X44742565Y-30888218D01*
X44722418Y-30883936D01*
X44719271Y-30883605D01*
X44719267Y-30883605D01*
X44622149Y-30874083D01*
X44622142Y-30874083D01*
X44611147Y-30873000D01*
X31588852Y-30873000D01*
X31579028Y-30873968D01*
X31575936Y-30873946D01*
X31572782Y-30874255D01*
X31475733Y-30884455D01*
X31455574Y-30888594D01*
X31435369Y-30892448D01*
X31432335Y-30893364D01*
X31339116Y-30922220D01*
X31320132Y-30930200D01*
X31301072Y-30937901D01*
X31298284Y-30939383D01*
X31298276Y-30939387D01*
X31298269Y-30939392D01*
X31212436Y-30985801D01*
X31195367Y-30997314D01*
X31178164Y-31008572D01*
X31175708Y-31010575D01*
X31100519Y-31072777D01*
X31086008Y-31087389D01*
X31071324Y-31101769D01*
X31069309Y-31104205D01*
X31069302Y-31104212D01*
X31069297Y-31104220D01*
X31007628Y-31179832D01*
X30996264Y-31196936D01*
X30984616Y-31213947D01*
X30983109Y-31216735D01*
X30937297Y-31302896D01*
X30929463Y-31321904D01*
X30921353Y-31340826D01*
X30920416Y-31343854D01*
X30892211Y-31437272D01*
X30888218Y-31457434D01*
X30883936Y-31477581D01*
X30883605Y-31480732D01*
X30874083Y-31577850D01*
X30874083Y-31577858D01*
X30873000Y-31588853D01*
X30353000Y-31588853D01*
X30353000Y-31501548D01*
X30370843Y-31297605D01*
X30422388Y-31105235D01*
X30506555Y-30924740D01*
X30620780Y-30761610D01*
X30761610Y-30620780D01*
X30924740Y-30506555D01*
X31105235Y-30422388D01*
X31297605Y-30370843D01*
X31501548Y-30353000D01*
X44698452Y-30353000D01*
X44902395Y-30370843D01*
G36*
X63952395Y-30370843D02*
G01*
X64144765Y-30422388D01*
X64325260Y-30506555D01*
X64488390Y-30620780D01*
X64629220Y-30761610D01*
X64743445Y-30924740D01*
X64827612Y-31105235D01*
X64879157Y-31297605D01*
X64897000Y-31501548D01*
X64897000Y-44698452D01*
X64879157Y-44902395D01*
X64827612Y-45094765D01*
X64743445Y-45275260D01*
X64629220Y-45438390D01*
X64488390Y-45579220D01*
X64325260Y-45693445D01*
X64144765Y-45777612D01*
X63952395Y-45829157D01*
X63748452Y-45847000D01*
X50551548Y-45847000D01*
X50347605Y-45829157D01*
X50155235Y-45777612D01*
X49974740Y-45693445D01*
X49811610Y-45579220D01*
X49670780Y-45438390D01*
X49556555Y-45275260D01*
X49472388Y-45094765D01*
X49420843Y-44902395D01*
X49403000Y-44698452D01*
X49403000Y-31588853D01*
X49923000Y-31588853D01*
X49923001Y-44611147D01*
X49923968Y-44620961D01*
X49923946Y-44624064D01*
X49924255Y-44627218D01*
X49934456Y-44724266D01*
X49938589Y-44744401D01*
X49942448Y-44764630D01*
X49943364Y-44767664D01*
X49972220Y-44860882D01*
X49980181Y-44879820D01*
X49987900Y-44898927D01*
X49989388Y-44901725D01*
X50035801Y-44987562D01*
X50047302Y-45004614D01*
X50058572Y-45021835D01*
X50060575Y-45024291D01*
X50122777Y-45099479D01*
X50137370Y-45113971D01*
X50151769Y-45128675D01*
X50154205Y-45130690D01*
X50154212Y-45130697D01*
X50154220Y-45130702D01*
X50229832Y-45192371D01*
X50246936Y-45203735D01*
X50263947Y-45215383D01*
X50266735Y-45216890D01*
X50352896Y-45262702D01*
X50371904Y-45270536D01*
X50390826Y-45278646D01*
X50393852Y-45279582D01*
X50393856Y-45279584D01*
X50393860Y-45279585D01*
X50487272Y-45307788D01*
X50507434Y-45311781D01*
X50527581Y-45316063D01*
X50530727Y-45316393D01*
X50530730Y-45316394D01*
X50530733Y-45316394D01*
X50627047Y-45325837D01*
X50638852Y-45327000D01*
X63661148Y-45327000D01*
X63670981Y-45326031D01*
X63674065Y-45326053D01*
X63677219Y-45325744D01*
X63774267Y-45315543D01*
X63794402Y-45311410D01*
X63814631Y-45307551D01*
X63817665Y-45306635D01*
X63910883Y-45277779D01*
X63929821Y-45269818D01*
X63948928Y-45262099D01*
X63951726Y-45260611D01*
X64037563Y-45214198D01*
X64054615Y-45202697D01*
X64071836Y-45191427D01*
X64074292Y-45189424D01*
X64149480Y-45127222D01*
X64163972Y-45112629D01*
X64178676Y-45098230D01*
X64180691Y-45095794D01*
X64180698Y-45095787D01*
X64180703Y-45095779D01*
X64242372Y-45020167D01*
X64253736Y-45003063D01*
X64265384Y-44986052D01*
X64266891Y-44983264D01*
X64312703Y-44897103D01*
X64320537Y-44878095D01*
X64328647Y-44859173D01*
X64329584Y-44856145D01*
X64357789Y-44762727D01*
X64361782Y-44742565D01*
X64366064Y-44722418D01*
X64366395Y-44719266D01*
X64375917Y-44622149D01*
X64375917Y-44622142D01*
X64377000Y-44611147D01*
X64377000Y-31588852D01*
X64376032Y-31579028D01*
X64376054Y-31575936D01*
X64375745Y-31572782D01*
X64365545Y-31475733D01*
X64361406Y-31455574D01*
X64357552Y-31435369D01*
X64356636Y-31432335D01*
X64327780Y-31339116D01*
X64319800Y-31320132D01*
X64312099Y-31301072D01*
X64310617Y-31298284D01*
X64310613Y-31298276D01*
X64310608Y-31298269D01*
X64264199Y-31212436D01*
X64252686Y-31195367D01*
X64241428Y-31178164D01*
X64239425Y-31175708D01*
X64177223Y-31100519D01*
X64162611Y-31086008D01*
X64148231Y-31071324D01*
X64145795Y-31069309D01*
X64145788Y-31069302D01*
X64145780Y-31069297D01*
X64070168Y-31007628D01*
X64053064Y-30996264D01*
X64036053Y-30984616D01*
X64033265Y-30983109D01*
X63947104Y-30937297D01*
X63928096Y-30929463D01*
X63909174Y-30921353D01*
X63906146Y-30920416D01*
X63906148Y-30920416D01*
X63906140Y-30920414D01*
X63812728Y-30892211D01*
X63792566Y-30888218D01*
X63772419Y-30883936D01*
X63769272Y-30883605D01*
X63769268Y-30883605D01*
X63672150Y-30874083D01*
X63672143Y-30874083D01*
X63661148Y-30873000D01*
X50638852Y-30873000D01*
X50629028Y-30873968D01*
X50625936Y-30873946D01*
X50622782Y-30874255D01*
X50525733Y-30884455D01*
X50505574Y-30888594D01*
X50485369Y-30892448D01*
X50482335Y-30893364D01*
X50389116Y-30922220D01*
X50370132Y-30930200D01*
X50351072Y-30937901D01*
X50348284Y-30939383D01*
X50348276Y-30939387D01*
X50348269Y-30939392D01*
X50262436Y-30985801D01*
X50245367Y-30997314D01*
X50228164Y-31008572D01*
X50225708Y-31010575D01*
X50150519Y-31072777D01*
X50136008Y-31087389D01*
X50121324Y-31101769D01*
X50119309Y-31104205D01*
X50119302Y-31104212D01*
X50119297Y-31104220D01*
X50057628Y-31179832D01*
X50046264Y-31196936D01*
X50034616Y-31213947D01*
X50033109Y-31216735D01*
X49987297Y-31302896D01*
X49979463Y-31321904D01*
X49971353Y-31340826D01*
X49970416Y-31343854D01*
X49942211Y-31437272D01*
X49938218Y-31457434D01*
X49933936Y-31477581D01*
X49933605Y-31480732D01*
X49924083Y-31577850D01*
X49924083Y-31577858D01*
X49923000Y-31588853D01*
X49403000Y-31588853D01*
X49403000Y-31501548D01*
X49420843Y-31297605D01*
X49472388Y-31105235D01*
X49556555Y-30924740D01*
X49670780Y-30761610D01*
X49811610Y-30620780D01*
X49974740Y-30506555D01*
X50155235Y-30422388D01*
X50347605Y-30370843D01*
X50551548Y-30353000D01*
X63748452Y-30353000D01*
X63952395Y-30370843D01*
X63952395Y-30370843D01*
G37*
X63952395Y-30370843D02*
X64144765Y-30422388D01*
X64325260Y-30506555D01*
X64488390Y-30620780D01*
X64629220Y-30761610D01*
X64743445Y-30924740D01*
X64827612Y-31105235D01*
X64879157Y-31297605D01*
X64897000Y-31501548D01*
X64897000Y-44698452D01*
X64879157Y-44902395D01*
X64827612Y-45094765D01*
X64743445Y-45275260D01*
X64629220Y-45438390D01*
X64488390Y-45579220D01*
X64325260Y-45693445D01*
X64144765Y-45777612D01*
X63952395Y-45829157D01*
X63748452Y-45847000D01*
X50551548Y-45847000D01*
X50347605Y-45829157D01*
X50155235Y-45777612D01*
X49974740Y-45693445D01*
X49811610Y-45579220D01*
X49670780Y-45438390D01*
X49556555Y-45275260D01*
X49472388Y-45094765D01*
X49420843Y-44902395D01*
X49403000Y-44698452D01*
X49403000Y-31588853D01*
X49923000Y-31588853D01*
X49923001Y-44611147D01*
X49923968Y-44620961D01*
X49923946Y-44624064D01*
X49924255Y-44627218D01*
X49934456Y-44724266D01*
X49938589Y-44744401D01*
X49942448Y-44764630D01*
X49943364Y-44767664D01*
X49972220Y-44860882D01*
X49980181Y-44879820D01*
X49987900Y-44898927D01*
X49989388Y-44901725D01*
X50035801Y-44987562D01*
X50047302Y-45004614D01*
X50058572Y-45021835D01*
X50060575Y-45024291D01*
X50122777Y-45099479D01*
X50137370Y-45113971D01*
X50151769Y-45128675D01*
X50154205Y-45130690D01*
X50154212Y-45130697D01*
X50154220Y-45130702D01*
X50229832Y-45192371D01*
X50246936Y-45203735D01*
X50263947Y-45215383D01*
X50266735Y-45216890D01*
X50352896Y-45262702D01*
X50371904Y-45270536D01*
X50390826Y-45278646D01*
X50393852Y-45279582D01*
X50393856Y-45279584D01*
X50393860Y-45279585D01*
X50487272Y-45307788D01*
X50507434Y-45311781D01*
X50527581Y-45316063D01*
X50530727Y-45316393D01*
X50530730Y-45316394D01*
X50530733Y-45316394D01*
X50627047Y-45325837D01*
X50638852Y-45327000D01*
X63661148Y-45327000D01*
X63670981Y-45326031D01*
X63674065Y-45326053D01*
X63677219Y-45325744D01*
X63774267Y-45315543D01*
X63794402Y-45311410D01*
X63814631Y-45307551D01*
X63817665Y-45306635D01*
X63910883Y-45277779D01*
X63929821Y-45269818D01*
X63948928Y-45262099D01*
X63951726Y-45260611D01*
X64037563Y-45214198D01*
X64054615Y-45202697D01*
X64071836Y-45191427D01*
X64074292Y-45189424D01*
X64149480Y-45127222D01*
X64163972Y-45112629D01*
X64178676Y-45098230D01*
X64180691Y-45095794D01*
X64180698Y-45095787D01*
X64180703Y-45095779D01*
X64242372Y-45020167D01*
X64253736Y-45003063D01*
X64265384Y-44986052D01*
X64266891Y-44983264D01*
X64312703Y-44897103D01*
X64320537Y-44878095D01*
X64328647Y-44859173D01*
X64329584Y-44856145D01*
X64357789Y-44762727D01*
X64361782Y-44742565D01*
X64366064Y-44722418D01*
X64366395Y-44719266D01*
X64375917Y-44622149D01*
X64375917Y-44622142D01*
X64377000Y-44611147D01*
X64377000Y-31588852D01*
X64376032Y-31579028D01*
X64376054Y-31575936D01*
X64375745Y-31572782D01*
X64365545Y-31475733D01*
X64361406Y-31455574D01*
X64357552Y-31435369D01*
X64356636Y-31432335D01*
X64327780Y-31339116D01*
X64319800Y-31320132D01*
X64312099Y-31301072D01*
X64310617Y-31298284D01*
X64310613Y-31298276D01*
X64310608Y-31298269D01*
X64264199Y-31212436D01*
X64252686Y-31195367D01*
X64241428Y-31178164D01*
X64239425Y-31175708D01*
X64177223Y-31100519D01*
X64162611Y-31086008D01*
X64148231Y-31071324D01*
X64145795Y-31069309D01*
X64145788Y-31069302D01*
X64145780Y-31069297D01*
X64070168Y-31007628D01*
X64053064Y-30996264D01*
X64036053Y-30984616D01*
X64033265Y-30983109D01*
X63947104Y-30937297D01*
X63928096Y-30929463D01*
X63909174Y-30921353D01*
X63906146Y-30920416D01*
X63906148Y-30920416D01*
X63906140Y-30920414D01*
X63812728Y-30892211D01*
X63792566Y-30888218D01*
X63772419Y-30883936D01*
X63769272Y-30883605D01*
X63769268Y-30883605D01*
X63672150Y-30874083D01*
X63672143Y-30874083D01*
X63661148Y-30873000D01*
X50638852Y-30873000D01*
X50629028Y-30873968D01*
X50625936Y-30873946D01*
X50622782Y-30874255D01*
X50525733Y-30884455D01*
X50505574Y-30888594D01*
X50485369Y-30892448D01*
X50482335Y-30893364D01*
X50389116Y-30922220D01*
X50370132Y-30930200D01*
X50351072Y-30937901D01*
X50348284Y-30939383D01*
X50348276Y-30939387D01*
X50348269Y-30939392D01*
X50262436Y-30985801D01*
X50245367Y-30997314D01*
X50228164Y-31008572D01*
X50225708Y-31010575D01*
X50150519Y-31072777D01*
X50136008Y-31087389D01*
X50121324Y-31101769D01*
X50119309Y-31104205D01*
X50119302Y-31104212D01*
X50119297Y-31104220D01*
X50057628Y-31179832D01*
X50046264Y-31196936D01*
X50034616Y-31213947D01*
X50033109Y-31216735D01*
X49987297Y-31302896D01*
X49979463Y-31321904D01*
X49971353Y-31340826D01*
X49970416Y-31343854D01*
X49942211Y-31437272D01*
X49938218Y-31457434D01*
X49933936Y-31477581D01*
X49933605Y-31480732D01*
X49924083Y-31577850D01*
X49924083Y-31577858D01*
X49923000Y-31588853D01*
X49403000Y-31588853D01*
X49403000Y-31501548D01*
X49420843Y-31297605D01*
X49472388Y-31105235D01*
X49556555Y-30924740D01*
X49670780Y-30761610D01*
X49811610Y-30620780D01*
X49974740Y-30506555D01*
X50155235Y-30422388D01*
X50347605Y-30370843D01*
X50551548Y-30353000D01*
X63748452Y-30353000D01*
X63952395Y-30370843D01*
G36*
X63952395Y-11320843D02*
G01*
X64144765Y-11372388D01*
X64325260Y-11456555D01*
X64488390Y-11570780D01*
X64629220Y-11711610D01*
X64743445Y-11874740D01*
X64827612Y-12055235D01*
X64879157Y-12247605D01*
X64897000Y-12451548D01*
X64897000Y-25648452D01*
X64879157Y-25852395D01*
X64827612Y-26044765D01*
X64743445Y-26225260D01*
X64629220Y-26388390D01*
X64488390Y-26529220D01*
X64325260Y-26643445D01*
X64144765Y-26727612D01*
X63952395Y-26779157D01*
X63748452Y-26797000D01*
X50551548Y-26797000D01*
X50347605Y-26779157D01*
X50155235Y-26727612D01*
X49974740Y-26643445D01*
X49811610Y-26529220D01*
X49670780Y-26388390D01*
X49556555Y-26225260D01*
X49472388Y-26044765D01*
X49420843Y-25852395D01*
X49403000Y-25648452D01*
X49403000Y-12538853D01*
X49923000Y-12538853D01*
X49923001Y-25561148D01*
X49923968Y-25570962D01*
X49923946Y-25574065D01*
X49924255Y-25577219D01*
X49934456Y-25674267D01*
X49938589Y-25694402D01*
X49942448Y-25714631D01*
X49943364Y-25717665D01*
X49972220Y-25810883D01*
X49980181Y-25829821D01*
X49987900Y-25848928D01*
X49989388Y-25851726D01*
X50035801Y-25937563D01*
X50047302Y-25954615D01*
X50058572Y-25971836D01*
X50060575Y-25974292D01*
X50122777Y-26049480D01*
X50137370Y-26063972D01*
X50151769Y-26078676D01*
X50154205Y-26080691D01*
X50154212Y-26080698D01*
X50154220Y-26080703D01*
X50229832Y-26142372D01*
X50246936Y-26153736D01*
X50263947Y-26165384D01*
X50266735Y-26166891D01*
X50352896Y-26212703D01*
X50371904Y-26220537D01*
X50390826Y-26228647D01*
X50393852Y-26229583D01*
X50393856Y-26229585D01*
X50393860Y-26229586D01*
X50487272Y-26257789D01*
X50507434Y-26261782D01*
X50527581Y-26266064D01*
X50530727Y-26266394D01*
X50530730Y-26266395D01*
X50530733Y-26266395D01*
X50627850Y-26275917D01*
X50627857Y-26275917D01*
X50638852Y-26277000D01*
X63661148Y-26277000D01*
X63670972Y-26276032D01*
X63674065Y-26276054D01*
X63677219Y-26275745D01*
X63774267Y-26265544D01*
X63794402Y-26261411D01*
X63814631Y-26257552D01*
X63817665Y-26256636D01*
X63910883Y-26227780D01*
X63929821Y-26219819D01*
X63948928Y-26212100D01*
X63951726Y-26210612D01*
X64037563Y-26164199D01*
X64054615Y-26152698D01*
X64071836Y-26141428D01*
X64074292Y-26139425D01*
X64149480Y-26077223D01*
X64163972Y-26062630D01*
X64178676Y-26048231D01*
X64180691Y-26045795D01*
X64180698Y-26045788D01*
X64180703Y-26045780D01*
X64242372Y-25970168D01*
X64253736Y-25953064D01*
X64265384Y-25936053D01*
X64266891Y-25933265D01*
X64312703Y-25847104D01*
X64320537Y-25828096D01*
X64328647Y-25809174D01*
X64329584Y-25806146D01*
X64357789Y-25712728D01*
X64361782Y-25692566D01*
X64366064Y-25672419D01*
X64366395Y-25669267D01*
X64375917Y-25572150D01*
X64375917Y-25572143D01*
X64377000Y-25561148D01*
X64377000Y-12538852D01*
X64376032Y-12529028D01*
X64376054Y-12525936D01*
X64375745Y-12522782D01*
X64365545Y-12425733D01*
X64361406Y-12405574D01*
X64357552Y-12385369D01*
X64356636Y-12382335D01*
X64327780Y-12289116D01*
X64319800Y-12270132D01*
X64312099Y-12251072D01*
X64310617Y-12248284D01*
X64310613Y-12248276D01*
X64310608Y-12248269D01*
X64264199Y-12162436D01*
X64252686Y-12145367D01*
X64241428Y-12128164D01*
X64239425Y-12125708D01*
X64177223Y-12050519D01*
X64162611Y-12036008D01*
X64148231Y-12021324D01*
X64145795Y-12019309D01*
X64145788Y-12019302D01*
X64145780Y-12019297D01*
X64070168Y-11957628D01*
X64053064Y-11946264D01*
X64036053Y-11934616D01*
X64033265Y-11933109D01*
X63947104Y-11887297D01*
X63928096Y-11879463D01*
X63909174Y-11871353D01*
X63906146Y-11870416D01*
X63906148Y-11870416D01*
X63906140Y-11870414D01*
X63812728Y-11842211D01*
X63792566Y-11838218D01*
X63772419Y-11833936D01*
X63769272Y-11833605D01*
X63769268Y-11833605D01*
X63672150Y-11824083D01*
X63672143Y-11824083D01*
X63661148Y-11823000D01*
X50638852Y-11823000D01*
X50629028Y-11823968D01*
X50625936Y-11823946D01*
X50622782Y-11824255D01*
X50525733Y-11834455D01*
X50505574Y-11838594D01*
X50485369Y-11842448D01*
X50482335Y-11843364D01*
X50389116Y-11872220D01*
X50370132Y-11880200D01*
X50351072Y-11887901D01*
X50348284Y-11889383D01*
X50348276Y-11889387D01*
X50348269Y-11889392D01*
X50262436Y-11935801D01*
X50245367Y-11947314D01*
X50228164Y-11958572D01*
X50225708Y-11960575D01*
X50150519Y-12022777D01*
X50136008Y-12037389D01*
X50121324Y-12051769D01*
X50119309Y-12054205D01*
X50119302Y-12054212D01*
X50119297Y-12054220D01*
X50057628Y-12129832D01*
X50046264Y-12146936D01*
X50034616Y-12163947D01*
X50033109Y-12166735D01*
X49987297Y-12252896D01*
X49979463Y-12271904D01*
X49971353Y-12290826D01*
X49970416Y-12293854D01*
X49942211Y-12387272D01*
X49938218Y-12407434D01*
X49933936Y-12427581D01*
X49933605Y-12430732D01*
X49924083Y-12527850D01*
X49924083Y-12527858D01*
X49923000Y-12538853D01*
X49403000Y-12538853D01*
X49403000Y-12451548D01*
X49420843Y-12247605D01*
X49472388Y-12055235D01*
X49556555Y-11874740D01*
X49670780Y-11711610D01*
X49811610Y-11570780D01*
X49974740Y-11456555D01*
X50155235Y-11372388D01*
X50347605Y-11320843D01*
X50551548Y-11303000D01*
X63748452Y-11303000D01*
X63952395Y-11320843D01*
X63952395Y-11320843D01*
G37*
X63952395Y-11320843D02*
X64144765Y-11372388D01*
X64325260Y-11456555D01*
X64488390Y-11570780D01*
X64629220Y-11711610D01*
X64743445Y-11874740D01*
X64827612Y-12055235D01*
X64879157Y-12247605D01*
X64897000Y-12451548D01*
X64897000Y-25648452D01*
X64879157Y-25852395D01*
X64827612Y-26044765D01*
X64743445Y-26225260D01*
X64629220Y-26388390D01*
X64488390Y-26529220D01*
X64325260Y-26643445D01*
X64144765Y-26727612D01*
X63952395Y-26779157D01*
X63748452Y-26797000D01*
X50551548Y-26797000D01*
X50347605Y-26779157D01*
X50155235Y-26727612D01*
X49974740Y-26643445D01*
X49811610Y-26529220D01*
X49670780Y-26388390D01*
X49556555Y-26225260D01*
X49472388Y-26044765D01*
X49420843Y-25852395D01*
X49403000Y-25648452D01*
X49403000Y-12538853D01*
X49923000Y-12538853D01*
X49923001Y-25561148D01*
X49923968Y-25570962D01*
X49923946Y-25574065D01*
X49924255Y-25577219D01*
X49934456Y-25674267D01*
X49938589Y-25694402D01*
X49942448Y-25714631D01*
X49943364Y-25717665D01*
X49972220Y-25810883D01*
X49980181Y-25829821D01*
X49987900Y-25848928D01*
X49989388Y-25851726D01*
X50035801Y-25937563D01*
X50047302Y-25954615D01*
X50058572Y-25971836D01*
X50060575Y-25974292D01*
X50122777Y-26049480D01*
X50137370Y-26063972D01*
X50151769Y-26078676D01*
X50154205Y-26080691D01*
X50154212Y-26080698D01*
X50154220Y-26080703D01*
X50229832Y-26142372D01*
X50246936Y-26153736D01*
X50263947Y-26165384D01*
X50266735Y-26166891D01*
X50352896Y-26212703D01*
X50371904Y-26220537D01*
X50390826Y-26228647D01*
X50393852Y-26229583D01*
X50393856Y-26229585D01*
X50393860Y-26229586D01*
X50487272Y-26257789D01*
X50507434Y-26261782D01*
X50527581Y-26266064D01*
X50530727Y-26266394D01*
X50530730Y-26266395D01*
X50530733Y-26266395D01*
X50627850Y-26275917D01*
X50627857Y-26275917D01*
X50638852Y-26277000D01*
X63661148Y-26277000D01*
X63670972Y-26276032D01*
X63674065Y-26276054D01*
X63677219Y-26275745D01*
X63774267Y-26265544D01*
X63794402Y-26261411D01*
X63814631Y-26257552D01*
X63817665Y-26256636D01*
X63910883Y-26227780D01*
X63929821Y-26219819D01*
X63948928Y-26212100D01*
X63951726Y-26210612D01*
X64037563Y-26164199D01*
X64054615Y-26152698D01*
X64071836Y-26141428D01*
X64074292Y-26139425D01*
X64149480Y-26077223D01*
X64163972Y-26062630D01*
X64178676Y-26048231D01*
X64180691Y-26045795D01*
X64180698Y-26045788D01*
X64180703Y-26045780D01*
X64242372Y-25970168D01*
X64253736Y-25953064D01*
X64265384Y-25936053D01*
X64266891Y-25933265D01*
X64312703Y-25847104D01*
X64320537Y-25828096D01*
X64328647Y-25809174D01*
X64329584Y-25806146D01*
X64357789Y-25712728D01*
X64361782Y-25692566D01*
X64366064Y-25672419D01*
X64366395Y-25669267D01*
X64375917Y-25572150D01*
X64375917Y-25572143D01*
X64377000Y-25561148D01*
X64377000Y-12538852D01*
X64376032Y-12529028D01*
X64376054Y-12525936D01*
X64375745Y-12522782D01*
X64365545Y-12425733D01*
X64361406Y-12405574D01*
X64357552Y-12385369D01*
X64356636Y-12382335D01*
X64327780Y-12289116D01*
X64319800Y-12270132D01*
X64312099Y-12251072D01*
X64310617Y-12248284D01*
X64310613Y-12248276D01*
X64310608Y-12248269D01*
X64264199Y-12162436D01*
X64252686Y-12145367D01*
X64241428Y-12128164D01*
X64239425Y-12125708D01*
X64177223Y-12050519D01*
X64162611Y-12036008D01*
X64148231Y-12021324D01*
X64145795Y-12019309D01*
X64145788Y-12019302D01*
X64145780Y-12019297D01*
X64070168Y-11957628D01*
X64053064Y-11946264D01*
X64036053Y-11934616D01*
X64033265Y-11933109D01*
X63947104Y-11887297D01*
X63928096Y-11879463D01*
X63909174Y-11871353D01*
X63906146Y-11870416D01*
X63906148Y-11870416D01*
X63906140Y-11870414D01*
X63812728Y-11842211D01*
X63792566Y-11838218D01*
X63772419Y-11833936D01*
X63769272Y-11833605D01*
X63769268Y-11833605D01*
X63672150Y-11824083D01*
X63672143Y-11824083D01*
X63661148Y-11823000D01*
X50638852Y-11823000D01*
X50629028Y-11823968D01*
X50625936Y-11823946D01*
X50622782Y-11824255D01*
X50525733Y-11834455D01*
X50505574Y-11838594D01*
X50485369Y-11842448D01*
X50482335Y-11843364D01*
X50389116Y-11872220D01*
X50370132Y-11880200D01*
X50351072Y-11887901D01*
X50348284Y-11889383D01*
X50348276Y-11889387D01*
X50348269Y-11889392D01*
X50262436Y-11935801D01*
X50245367Y-11947314D01*
X50228164Y-11958572D01*
X50225708Y-11960575D01*
X50150519Y-12022777D01*
X50136008Y-12037389D01*
X50121324Y-12051769D01*
X50119309Y-12054205D01*
X50119302Y-12054212D01*
X50119297Y-12054220D01*
X50057628Y-12129832D01*
X50046264Y-12146936D01*
X50034616Y-12163947D01*
X50033109Y-12166735D01*
X49987297Y-12252896D01*
X49979463Y-12271904D01*
X49971353Y-12290826D01*
X49970416Y-12293854D01*
X49942211Y-12387272D01*
X49938218Y-12407434D01*
X49933936Y-12427581D01*
X49933605Y-12430732D01*
X49924083Y-12527850D01*
X49924083Y-12527858D01*
X49923000Y-12538853D01*
X49403000Y-12538853D01*
X49403000Y-12451548D01*
X49420843Y-12247605D01*
X49472388Y-12055235D01*
X49556555Y-11874740D01*
X49670780Y-11711610D01*
X49811610Y-11570780D01*
X49974740Y-11456555D01*
X50155235Y-11372388D01*
X50347605Y-11320843D01*
X50551548Y-11303000D01*
X63748452Y-11303000D01*
X63952395Y-11320843D01*
G36*
X44902395Y-11320843D02*
G01*
X45094765Y-11372388D01*
X45275260Y-11456555D01*
X45438390Y-11570780D01*
X45579220Y-11711610D01*
X45693445Y-11874740D01*
X45777612Y-12055235D01*
X45829157Y-12247605D01*
X45847000Y-12451548D01*
X45847000Y-25648452D01*
X45829157Y-25852395D01*
X45777612Y-26044765D01*
X45693445Y-26225260D01*
X45579220Y-26388390D01*
X45438390Y-26529220D01*
X45275260Y-26643445D01*
X45094765Y-26727612D01*
X44902395Y-26779157D01*
X44698452Y-26797000D01*
X31501548Y-26797000D01*
X31297605Y-26779157D01*
X31105235Y-26727612D01*
X30924740Y-26643445D01*
X30761610Y-26529220D01*
X30620780Y-26388390D01*
X30506555Y-26225260D01*
X30422388Y-26044765D01*
X30370843Y-25852395D01*
X30353000Y-25648452D01*
X30353000Y-12538853D01*
X30873000Y-12538853D01*
X30873001Y-25561148D01*
X30873968Y-25570962D01*
X30873946Y-25574065D01*
X30874255Y-25577219D01*
X30884456Y-25674267D01*
X30888589Y-25694402D01*
X30892448Y-25714631D01*
X30893364Y-25717665D01*
X30922220Y-25810883D01*
X30930181Y-25829821D01*
X30937900Y-25848928D01*
X30939388Y-25851726D01*
X30985801Y-25937563D01*
X30997302Y-25954615D01*
X31008572Y-25971836D01*
X31010575Y-25974292D01*
X31072777Y-26049480D01*
X31087370Y-26063972D01*
X31101769Y-26078676D01*
X31104205Y-26080691D01*
X31104212Y-26080698D01*
X31104220Y-26080703D01*
X31179832Y-26142372D01*
X31196936Y-26153736D01*
X31213947Y-26165384D01*
X31216735Y-26166891D01*
X31302896Y-26212703D01*
X31321904Y-26220537D01*
X31340826Y-26228647D01*
X31343852Y-26229583D01*
X31343856Y-26229585D01*
X31343860Y-26229586D01*
X31437272Y-26257789D01*
X31457434Y-26261782D01*
X31477581Y-26266064D01*
X31480727Y-26266394D01*
X31480730Y-26266395D01*
X31480733Y-26266395D01*
X31577850Y-26275917D01*
X31577857Y-26275917D01*
X31588852Y-26277000D01*
X44611147Y-26277000D01*
X44620971Y-26276032D01*
X44624064Y-26276054D01*
X44627218Y-26275745D01*
X44724266Y-26265544D01*
X44744401Y-26261411D01*
X44764630Y-26257552D01*
X44767664Y-26256636D01*
X44860882Y-26227780D01*
X44879820Y-26219819D01*
X44898927Y-26212100D01*
X44901725Y-26210612D01*
X44987562Y-26164199D01*
X45004614Y-26152698D01*
X45021835Y-26141428D01*
X45024291Y-26139425D01*
X45099479Y-26077223D01*
X45113971Y-26062630D01*
X45128675Y-26048231D01*
X45130690Y-26045795D01*
X45130697Y-26045788D01*
X45130702Y-26045780D01*
X45192371Y-25970168D01*
X45203735Y-25953064D01*
X45215383Y-25936053D01*
X45216890Y-25933265D01*
X45262702Y-25847104D01*
X45270536Y-25828096D01*
X45278646Y-25809174D01*
X45279583Y-25806146D01*
X45307788Y-25712728D01*
X45311781Y-25692566D01*
X45316063Y-25672419D01*
X45316394Y-25669267D01*
X45325916Y-25572150D01*
X45327000Y-25561148D01*
X45327000Y-12538852D01*
X45326031Y-12529019D01*
X45326053Y-12525936D01*
X45325744Y-12522782D01*
X45315544Y-12425733D01*
X45311405Y-12405574D01*
X45307551Y-12385369D01*
X45306635Y-12382335D01*
X45277779Y-12289116D01*
X45269799Y-12270132D01*
X45262098Y-12251072D01*
X45260616Y-12248284D01*
X45260612Y-12248276D01*
X45260607Y-12248269D01*
X45214198Y-12162436D01*
X45202685Y-12145367D01*
X45191427Y-12128164D01*
X45189424Y-12125708D01*
X45127222Y-12050519D01*
X45112610Y-12036008D01*
X45098230Y-12021324D01*
X45095794Y-12019309D01*
X45095787Y-12019302D01*
X45095779Y-12019297D01*
X45020167Y-11957628D01*
X45003063Y-11946264D01*
X44986052Y-11934616D01*
X44983264Y-11933109D01*
X44897103Y-11887297D01*
X44878095Y-11879463D01*
X44859173Y-11871353D01*
X44856145Y-11870416D01*
X44856147Y-11870416D01*
X44856139Y-11870414D01*
X44762727Y-11842211D01*
X44742565Y-11838218D01*
X44722418Y-11833936D01*
X44719271Y-11833605D01*
X44719267Y-11833605D01*
X44622149Y-11824083D01*
X44622142Y-11824083D01*
X44611147Y-11823000D01*
X31588852Y-11823000D01*
X31579028Y-11823968D01*
X31575936Y-11823946D01*
X31572782Y-11824255D01*
X31475733Y-11834455D01*
X31455574Y-11838594D01*
X31435369Y-11842448D01*
X31432335Y-11843364D01*
X31339116Y-11872220D01*
X31320132Y-11880200D01*
X31301072Y-11887901D01*
X31298284Y-11889383D01*
X31298276Y-11889387D01*
X31298269Y-11889392D01*
X31212436Y-11935801D01*
X31195367Y-11947314D01*
X31178164Y-11958572D01*
X31175708Y-11960575D01*
X31100519Y-12022777D01*
X31086008Y-12037389D01*
X31071324Y-12051769D01*
X31069309Y-12054205D01*
X31069302Y-12054212D01*
X31069297Y-12054220D01*
X31007628Y-12129832D01*
X30996264Y-12146936D01*
X30984616Y-12163947D01*
X30983109Y-12166735D01*
X30937297Y-12252896D01*
X30929463Y-12271904D01*
X30921353Y-12290826D01*
X30920416Y-12293854D01*
X30892211Y-12387272D01*
X30888218Y-12407434D01*
X30883936Y-12427581D01*
X30883605Y-12430732D01*
X30874083Y-12527850D01*
X30874083Y-12527858D01*
X30873000Y-12538853D01*
X30353000Y-12538853D01*
X30353000Y-12451548D01*
X30370843Y-12247605D01*
X30422388Y-12055235D01*
X30506555Y-11874740D01*
X30620780Y-11711610D01*
X30761610Y-11570780D01*
X30924740Y-11456555D01*
X31105235Y-11372388D01*
X31297605Y-11320843D01*
X31501548Y-11303000D01*
X44698452Y-11303000D01*
X44902395Y-11320843D01*
X44902395Y-11320843D01*
G37*
X44902395Y-11320843D02*
X45094765Y-11372388D01*
X45275260Y-11456555D01*
X45438390Y-11570780D01*
X45579220Y-11711610D01*
X45693445Y-11874740D01*
X45777612Y-12055235D01*
X45829157Y-12247605D01*
X45847000Y-12451548D01*
X45847000Y-25648452D01*
X45829157Y-25852395D01*
X45777612Y-26044765D01*
X45693445Y-26225260D01*
X45579220Y-26388390D01*
X45438390Y-26529220D01*
X45275260Y-26643445D01*
X45094765Y-26727612D01*
X44902395Y-26779157D01*
X44698452Y-26797000D01*
X31501548Y-26797000D01*
X31297605Y-26779157D01*
X31105235Y-26727612D01*
X30924740Y-26643445D01*
X30761610Y-26529220D01*
X30620780Y-26388390D01*
X30506555Y-26225260D01*
X30422388Y-26044765D01*
X30370843Y-25852395D01*
X30353000Y-25648452D01*
X30353000Y-12538853D01*
X30873000Y-12538853D01*
X30873001Y-25561148D01*
X30873968Y-25570962D01*
X30873946Y-25574065D01*
X30874255Y-25577219D01*
X30884456Y-25674267D01*
X30888589Y-25694402D01*
X30892448Y-25714631D01*
X30893364Y-25717665D01*
X30922220Y-25810883D01*
X30930181Y-25829821D01*
X30937900Y-25848928D01*
X30939388Y-25851726D01*
X30985801Y-25937563D01*
X30997302Y-25954615D01*
X31008572Y-25971836D01*
X31010575Y-25974292D01*
X31072777Y-26049480D01*
X31087370Y-26063972D01*
X31101769Y-26078676D01*
X31104205Y-26080691D01*
X31104212Y-26080698D01*
X31104220Y-26080703D01*
X31179832Y-26142372D01*
X31196936Y-26153736D01*
X31213947Y-26165384D01*
X31216735Y-26166891D01*
X31302896Y-26212703D01*
X31321904Y-26220537D01*
X31340826Y-26228647D01*
X31343852Y-26229583D01*
X31343856Y-26229585D01*
X31343860Y-26229586D01*
X31437272Y-26257789D01*
X31457434Y-26261782D01*
X31477581Y-26266064D01*
X31480727Y-26266394D01*
X31480730Y-26266395D01*
X31480733Y-26266395D01*
X31577850Y-26275917D01*
X31577857Y-26275917D01*
X31588852Y-26277000D01*
X44611147Y-26277000D01*
X44620971Y-26276032D01*
X44624064Y-26276054D01*
X44627218Y-26275745D01*
X44724266Y-26265544D01*
X44744401Y-26261411D01*
X44764630Y-26257552D01*
X44767664Y-26256636D01*
X44860882Y-26227780D01*
X44879820Y-26219819D01*
X44898927Y-26212100D01*
X44901725Y-26210612D01*
X44987562Y-26164199D01*
X45004614Y-26152698D01*
X45021835Y-26141428D01*
X45024291Y-26139425D01*
X45099479Y-26077223D01*
X45113971Y-26062630D01*
X45128675Y-26048231D01*
X45130690Y-26045795D01*
X45130697Y-26045788D01*
X45130702Y-26045780D01*
X45192371Y-25970168D01*
X45203735Y-25953064D01*
X45215383Y-25936053D01*
X45216890Y-25933265D01*
X45262702Y-25847104D01*
X45270536Y-25828096D01*
X45278646Y-25809174D01*
X45279583Y-25806146D01*
X45307788Y-25712728D01*
X45311781Y-25692566D01*
X45316063Y-25672419D01*
X45316394Y-25669267D01*
X45325916Y-25572150D01*
X45327000Y-25561148D01*
X45327000Y-12538852D01*
X45326031Y-12529019D01*
X45326053Y-12525936D01*
X45325744Y-12522782D01*
X45315544Y-12425733D01*
X45311405Y-12405574D01*
X45307551Y-12385369D01*
X45306635Y-12382335D01*
X45277779Y-12289116D01*
X45269799Y-12270132D01*
X45262098Y-12251072D01*
X45260616Y-12248284D01*
X45260612Y-12248276D01*
X45260607Y-12248269D01*
X45214198Y-12162436D01*
X45202685Y-12145367D01*
X45191427Y-12128164D01*
X45189424Y-12125708D01*
X45127222Y-12050519D01*
X45112610Y-12036008D01*
X45098230Y-12021324D01*
X45095794Y-12019309D01*
X45095787Y-12019302D01*
X45095779Y-12019297D01*
X45020167Y-11957628D01*
X45003063Y-11946264D01*
X44986052Y-11934616D01*
X44983264Y-11933109D01*
X44897103Y-11887297D01*
X44878095Y-11879463D01*
X44859173Y-11871353D01*
X44856145Y-11870416D01*
X44856147Y-11870416D01*
X44856139Y-11870414D01*
X44762727Y-11842211D01*
X44742565Y-11838218D01*
X44722418Y-11833936D01*
X44719271Y-11833605D01*
X44719267Y-11833605D01*
X44622149Y-11824083D01*
X44622142Y-11824083D01*
X44611147Y-11823000D01*
X31588852Y-11823000D01*
X31579028Y-11823968D01*
X31575936Y-11823946D01*
X31572782Y-11824255D01*
X31475733Y-11834455D01*
X31455574Y-11838594D01*
X31435369Y-11842448D01*
X31432335Y-11843364D01*
X31339116Y-11872220D01*
X31320132Y-11880200D01*
X31301072Y-11887901D01*
X31298284Y-11889383D01*
X31298276Y-11889387D01*
X31298269Y-11889392D01*
X31212436Y-11935801D01*
X31195367Y-11947314D01*
X31178164Y-11958572D01*
X31175708Y-11960575D01*
X31100519Y-12022777D01*
X31086008Y-12037389D01*
X31071324Y-12051769D01*
X31069309Y-12054205D01*
X31069302Y-12054212D01*
X31069297Y-12054220D01*
X31007628Y-12129832D01*
X30996264Y-12146936D01*
X30984616Y-12163947D01*
X30983109Y-12166735D01*
X30937297Y-12252896D01*
X30929463Y-12271904D01*
X30921353Y-12290826D01*
X30920416Y-12293854D01*
X30892211Y-12387272D01*
X30888218Y-12407434D01*
X30883936Y-12427581D01*
X30883605Y-12430732D01*
X30874083Y-12527850D01*
X30874083Y-12527858D01*
X30873000Y-12538853D01*
X30353000Y-12538853D01*
X30353000Y-12451548D01*
X30370843Y-12247605D01*
X30422388Y-12055235D01*
X30506555Y-11874740D01*
X30620780Y-11711610D01*
X30761610Y-11570780D01*
X30924740Y-11456555D01*
X31105235Y-11372388D01*
X31297605Y-11320843D01*
X31501548Y-11303000D01*
X44698452Y-11303000D01*
X44902395Y-11320843D01*
G36*
X25852395Y-11320843D02*
G01*
X26044765Y-11372388D01*
X26225260Y-11456555D01*
X26388390Y-11570780D01*
X26529220Y-11711610D01*
X26643445Y-11874740D01*
X26727612Y-12055235D01*
X26779157Y-12247605D01*
X26797000Y-12451548D01*
X26797000Y-25648452D01*
X26779157Y-25852395D01*
X26727612Y-26044765D01*
X26643445Y-26225260D01*
X26529220Y-26388390D01*
X26388390Y-26529220D01*
X26225260Y-26643445D01*
X26044765Y-26727612D01*
X25852395Y-26779157D01*
X25648452Y-26797000D01*
X12451548Y-26797000D01*
X12247605Y-26779157D01*
X12055235Y-26727612D01*
X11874740Y-26643445D01*
X11711610Y-26529220D01*
X11570780Y-26388390D01*
X11456555Y-26225260D01*
X11372388Y-26044765D01*
X11320843Y-25852395D01*
X11303000Y-25648452D01*
X11303000Y-12538853D01*
X11823000Y-12538853D01*
X11823001Y-25561148D01*
X11823968Y-25570962D01*
X11823946Y-25574065D01*
X11824255Y-25577219D01*
X11834456Y-25674267D01*
X11838589Y-25694402D01*
X11842448Y-25714631D01*
X11843364Y-25717665D01*
X11872220Y-25810883D01*
X11880181Y-25829821D01*
X11887900Y-25848928D01*
X11889388Y-25851726D01*
X11935801Y-25937563D01*
X11947302Y-25954615D01*
X11958572Y-25971836D01*
X11960575Y-25974292D01*
X12022777Y-26049480D01*
X12037370Y-26063972D01*
X12051769Y-26078676D01*
X12054205Y-26080691D01*
X12054212Y-26080698D01*
X12054220Y-26080703D01*
X12129832Y-26142372D01*
X12146936Y-26153736D01*
X12163947Y-26165384D01*
X12166735Y-26166891D01*
X12252896Y-26212703D01*
X12271904Y-26220537D01*
X12290826Y-26228647D01*
X12293852Y-26229583D01*
X12293856Y-26229585D01*
X12293860Y-26229586D01*
X12387272Y-26257789D01*
X12407434Y-26261782D01*
X12427581Y-26266064D01*
X12430727Y-26266394D01*
X12430730Y-26266395D01*
X12430733Y-26266395D01*
X12527850Y-26275917D01*
X12527857Y-26275917D01*
X12538852Y-26277000D01*
X25561148Y-26277000D01*
X25570972Y-26276032D01*
X25574065Y-26276054D01*
X25577219Y-26275745D01*
X25674267Y-26265544D01*
X25694402Y-26261411D01*
X25714631Y-26257552D01*
X25717665Y-26256636D01*
X25810883Y-26227780D01*
X25829821Y-26219819D01*
X25848928Y-26212100D01*
X25851726Y-26210612D01*
X25937563Y-26164199D01*
X25954615Y-26152698D01*
X25971836Y-26141428D01*
X25974292Y-26139425D01*
X26049480Y-26077223D01*
X26063972Y-26062630D01*
X26078676Y-26048231D01*
X26080691Y-26045795D01*
X26080698Y-26045788D01*
X26080703Y-26045780D01*
X26142372Y-25970168D01*
X26153736Y-25953064D01*
X26165384Y-25936053D01*
X26166891Y-25933265D01*
X26212703Y-25847104D01*
X26220537Y-25828096D01*
X26228647Y-25809174D01*
X26229584Y-25806146D01*
X26257789Y-25712728D01*
X26261782Y-25692566D01*
X26266064Y-25672419D01*
X26266395Y-25669267D01*
X26275917Y-25572150D01*
X26275917Y-25572143D01*
X26277000Y-25561148D01*
X26277000Y-12538852D01*
X26276032Y-12529028D01*
X26276054Y-12525936D01*
X26275745Y-12522782D01*
X26265545Y-12425733D01*
X26261406Y-12405574D01*
X26257552Y-12385369D01*
X26256636Y-12382335D01*
X26227780Y-12289116D01*
X26219800Y-12270132D01*
X26212099Y-12251072D01*
X26210617Y-12248284D01*
X26210613Y-12248276D01*
X26210608Y-12248269D01*
X26164199Y-12162436D01*
X26152686Y-12145367D01*
X26141428Y-12128164D01*
X26139425Y-12125708D01*
X26077223Y-12050519D01*
X26062611Y-12036008D01*
X26048231Y-12021324D01*
X26045795Y-12019309D01*
X26045788Y-12019302D01*
X26045780Y-12019297D01*
X25970168Y-11957628D01*
X25953064Y-11946264D01*
X25936053Y-11934616D01*
X25933265Y-11933109D01*
X25847104Y-11887297D01*
X25828096Y-11879463D01*
X25809174Y-11871353D01*
X25806146Y-11870416D01*
X25806148Y-11870416D01*
X25806140Y-11870414D01*
X25712728Y-11842211D01*
X25692566Y-11838218D01*
X25672419Y-11833936D01*
X25669272Y-11833605D01*
X25669268Y-11833605D01*
X25572150Y-11824083D01*
X25572143Y-11824083D01*
X25561148Y-11823000D01*
X12538852Y-11823000D01*
X12529028Y-11823968D01*
X12525936Y-11823946D01*
X12522782Y-11824255D01*
X12425733Y-11834455D01*
X12405574Y-11838594D01*
X12385369Y-11842448D01*
X12382335Y-11843364D01*
X12289116Y-11872220D01*
X12270132Y-11880200D01*
X12251072Y-11887901D01*
X12248284Y-11889383D01*
X12248276Y-11889387D01*
X12248269Y-11889392D01*
X12162436Y-11935801D01*
X12145367Y-11947314D01*
X12128164Y-11958572D01*
X12125708Y-11960575D01*
X12050519Y-12022777D01*
X12036008Y-12037389D01*
X12021324Y-12051769D01*
X12019309Y-12054205D01*
X12019302Y-12054212D01*
X12019297Y-12054220D01*
X11957628Y-12129832D01*
X11946264Y-12146936D01*
X11934616Y-12163947D01*
X11933109Y-12166735D01*
X11887297Y-12252896D01*
X11879463Y-12271904D01*
X11871353Y-12290826D01*
X11870416Y-12293854D01*
X11842211Y-12387272D01*
X11838218Y-12407434D01*
X11833936Y-12427581D01*
X11833605Y-12430732D01*
X11824083Y-12527850D01*
X11824083Y-12527858D01*
X11823000Y-12538853D01*
X11303000Y-12538853D01*
X11303000Y-12451548D01*
X11320843Y-12247605D01*
X11372388Y-12055235D01*
X11456555Y-11874740D01*
X11570780Y-11711610D01*
X11711610Y-11570780D01*
X11874740Y-11456555D01*
X12055235Y-11372388D01*
X12247605Y-11320843D01*
X12451548Y-11303000D01*
X25648452Y-11303000D01*
X25852395Y-11320843D01*
X25852395Y-11320843D01*
G37*
X25852395Y-11320843D02*
X26044765Y-11372388D01*
X26225260Y-11456555D01*
X26388390Y-11570780D01*
X26529220Y-11711610D01*
X26643445Y-11874740D01*
X26727612Y-12055235D01*
X26779157Y-12247605D01*
X26797000Y-12451548D01*
X26797000Y-25648452D01*
X26779157Y-25852395D01*
X26727612Y-26044765D01*
X26643445Y-26225260D01*
X26529220Y-26388390D01*
X26388390Y-26529220D01*
X26225260Y-26643445D01*
X26044765Y-26727612D01*
X25852395Y-26779157D01*
X25648452Y-26797000D01*
X12451548Y-26797000D01*
X12247605Y-26779157D01*
X12055235Y-26727612D01*
X11874740Y-26643445D01*
X11711610Y-26529220D01*
X11570780Y-26388390D01*
X11456555Y-26225260D01*
X11372388Y-26044765D01*
X11320843Y-25852395D01*
X11303000Y-25648452D01*
X11303000Y-12538853D01*
X11823000Y-12538853D01*
X11823001Y-25561148D01*
X11823968Y-25570962D01*
X11823946Y-25574065D01*
X11824255Y-25577219D01*
X11834456Y-25674267D01*
X11838589Y-25694402D01*
X11842448Y-25714631D01*
X11843364Y-25717665D01*
X11872220Y-25810883D01*
X11880181Y-25829821D01*
X11887900Y-25848928D01*
X11889388Y-25851726D01*
X11935801Y-25937563D01*
X11947302Y-25954615D01*
X11958572Y-25971836D01*
X11960575Y-25974292D01*
X12022777Y-26049480D01*
X12037370Y-26063972D01*
X12051769Y-26078676D01*
X12054205Y-26080691D01*
X12054212Y-26080698D01*
X12054220Y-26080703D01*
X12129832Y-26142372D01*
X12146936Y-26153736D01*
X12163947Y-26165384D01*
X12166735Y-26166891D01*
X12252896Y-26212703D01*
X12271904Y-26220537D01*
X12290826Y-26228647D01*
X12293852Y-26229583D01*
X12293856Y-26229585D01*
X12293860Y-26229586D01*
X12387272Y-26257789D01*
X12407434Y-26261782D01*
X12427581Y-26266064D01*
X12430727Y-26266394D01*
X12430730Y-26266395D01*
X12430733Y-26266395D01*
X12527850Y-26275917D01*
X12527857Y-26275917D01*
X12538852Y-26277000D01*
X25561148Y-26277000D01*
X25570972Y-26276032D01*
X25574065Y-26276054D01*
X25577219Y-26275745D01*
X25674267Y-26265544D01*
X25694402Y-26261411D01*
X25714631Y-26257552D01*
X25717665Y-26256636D01*
X25810883Y-26227780D01*
X25829821Y-26219819D01*
X25848928Y-26212100D01*
X25851726Y-26210612D01*
X25937563Y-26164199D01*
X25954615Y-26152698D01*
X25971836Y-26141428D01*
X25974292Y-26139425D01*
X26049480Y-26077223D01*
X26063972Y-26062630D01*
X26078676Y-26048231D01*
X26080691Y-26045795D01*
X26080698Y-26045788D01*
X26080703Y-26045780D01*
X26142372Y-25970168D01*
X26153736Y-25953064D01*
X26165384Y-25936053D01*
X26166891Y-25933265D01*
X26212703Y-25847104D01*
X26220537Y-25828096D01*
X26228647Y-25809174D01*
X26229584Y-25806146D01*
X26257789Y-25712728D01*
X26261782Y-25692566D01*
X26266064Y-25672419D01*
X26266395Y-25669267D01*
X26275917Y-25572150D01*
X26275917Y-25572143D01*
X26277000Y-25561148D01*
X26277000Y-12538852D01*
X26276032Y-12529028D01*
X26276054Y-12525936D01*
X26275745Y-12522782D01*
X26265545Y-12425733D01*
X26261406Y-12405574D01*
X26257552Y-12385369D01*
X26256636Y-12382335D01*
X26227780Y-12289116D01*
X26219800Y-12270132D01*
X26212099Y-12251072D01*
X26210617Y-12248284D01*
X26210613Y-12248276D01*
X26210608Y-12248269D01*
X26164199Y-12162436D01*
X26152686Y-12145367D01*
X26141428Y-12128164D01*
X26139425Y-12125708D01*
X26077223Y-12050519D01*
X26062611Y-12036008D01*
X26048231Y-12021324D01*
X26045795Y-12019309D01*
X26045788Y-12019302D01*
X26045780Y-12019297D01*
X25970168Y-11957628D01*
X25953064Y-11946264D01*
X25936053Y-11934616D01*
X25933265Y-11933109D01*
X25847104Y-11887297D01*
X25828096Y-11879463D01*
X25809174Y-11871353D01*
X25806146Y-11870416D01*
X25806148Y-11870416D01*
X25806140Y-11870414D01*
X25712728Y-11842211D01*
X25692566Y-11838218D01*
X25672419Y-11833936D01*
X25669272Y-11833605D01*
X25669268Y-11833605D01*
X25572150Y-11824083D01*
X25572143Y-11824083D01*
X25561148Y-11823000D01*
X12538852Y-11823000D01*
X12529028Y-11823968D01*
X12525936Y-11823946D01*
X12522782Y-11824255D01*
X12425733Y-11834455D01*
X12405574Y-11838594D01*
X12385369Y-11842448D01*
X12382335Y-11843364D01*
X12289116Y-11872220D01*
X12270132Y-11880200D01*
X12251072Y-11887901D01*
X12248284Y-11889383D01*
X12248276Y-11889387D01*
X12248269Y-11889392D01*
X12162436Y-11935801D01*
X12145367Y-11947314D01*
X12128164Y-11958572D01*
X12125708Y-11960575D01*
X12050519Y-12022777D01*
X12036008Y-12037389D01*
X12021324Y-12051769D01*
X12019309Y-12054205D01*
X12019302Y-12054212D01*
X12019297Y-12054220D01*
X11957628Y-12129832D01*
X11946264Y-12146936D01*
X11934616Y-12163947D01*
X11933109Y-12166735D01*
X11887297Y-12252896D01*
X11879463Y-12271904D01*
X11871353Y-12290826D01*
X11870416Y-12293854D01*
X11842211Y-12387272D01*
X11838218Y-12407434D01*
X11833936Y-12427581D01*
X11833605Y-12430732D01*
X11824083Y-12527850D01*
X11824083Y-12527858D01*
X11823000Y-12538853D01*
X11303000Y-12538853D01*
X11303000Y-12451548D01*
X11320843Y-12247605D01*
X11372388Y-12055235D01*
X11456555Y-11874740D01*
X11570780Y-11711610D01*
X11711610Y-11570780D01*
X11874740Y-11456555D01*
X12055235Y-11372388D01*
X12247605Y-11320843D01*
X12451548Y-11303000D01*
X25648452Y-11303000D01*
X25852395Y-11320843D01*
G36*
X25852395Y7729157D02*
G01*
X26044765Y7677612D01*
X26225260Y7593445D01*
X26388390Y7479220D01*
X26529220Y7338390D01*
X26643445Y7175260D01*
X26727612Y6994765D01*
X26779157Y6802395D01*
X26797000Y6598452D01*
X26797000Y-6598452D01*
X26779157Y-6802395D01*
X26727612Y-6994765D01*
X26643445Y-7175260D01*
X26529220Y-7338390D01*
X26388390Y-7479220D01*
X26225260Y-7593445D01*
X26044765Y-7677612D01*
X25852395Y-7729157D01*
X25648452Y-7747000D01*
X12451548Y-7747000D01*
X12247605Y-7729157D01*
X12055235Y-7677612D01*
X11874740Y-7593445D01*
X11711610Y-7479220D01*
X11570780Y-7338390D01*
X11456555Y-7175260D01*
X11372388Y-6994765D01*
X11320843Y-6802395D01*
X11303000Y-6598452D01*
X11303000Y6511146D01*
X11823000Y6511146D01*
X11823001Y-6511148D01*
X11823968Y-6520962D01*
X11823946Y-6524065D01*
X11824255Y-6527219D01*
X11834456Y-6624267D01*
X11838589Y-6644402D01*
X11842448Y-6664631D01*
X11843364Y-6667665D01*
X11872220Y-6760883D01*
X11880181Y-6779821D01*
X11887900Y-6798928D01*
X11889388Y-6801726D01*
X11935801Y-6887563D01*
X11947302Y-6904615D01*
X11958572Y-6921836D01*
X11960575Y-6924292D01*
X12022777Y-6999480D01*
X12037370Y-7013972D01*
X12051769Y-7028676D01*
X12054205Y-7030691D01*
X12054212Y-7030698D01*
X12054220Y-7030703D01*
X12129832Y-7092372D01*
X12146936Y-7103736D01*
X12163947Y-7115384D01*
X12166735Y-7116891D01*
X12252896Y-7162703D01*
X12271904Y-7170537D01*
X12290826Y-7178647D01*
X12293852Y-7179583D01*
X12293856Y-7179585D01*
X12293860Y-7179586D01*
X12387272Y-7207789D01*
X12407434Y-7211782D01*
X12427581Y-7216064D01*
X12430727Y-7216394D01*
X12430730Y-7216395D01*
X12430733Y-7216395D01*
X12527850Y-7225917D01*
X12527857Y-7225917D01*
X12538852Y-7227000D01*
X25561148Y-7227000D01*
X25570972Y-7226032D01*
X25574065Y-7226054D01*
X25577219Y-7225745D01*
X25674267Y-7215544D01*
X25694402Y-7211411D01*
X25714631Y-7207552D01*
X25717665Y-7206636D01*
X25810883Y-7177780D01*
X25829821Y-7169819D01*
X25848928Y-7162100D01*
X25851726Y-7160612D01*
X25937563Y-7114199D01*
X25954615Y-7102698D01*
X25971836Y-7091428D01*
X25974292Y-7089425D01*
X26049480Y-7027223D01*
X26063972Y-7012630D01*
X26078676Y-6998231D01*
X26080691Y-6995795D01*
X26080698Y-6995788D01*
X26080703Y-6995780D01*
X26142372Y-6920168D01*
X26153736Y-6903064D01*
X26165384Y-6886053D01*
X26166891Y-6883265D01*
X26212703Y-6797104D01*
X26220537Y-6778096D01*
X26228647Y-6759174D01*
X26229584Y-6756146D01*
X26257789Y-6662728D01*
X26261782Y-6642566D01*
X26266064Y-6622419D01*
X26266395Y-6619267D01*
X26275917Y-6522150D01*
X26275917Y-6522143D01*
X26277000Y-6511148D01*
X26277000Y6511147D01*
X26276032Y6520971D01*
X26276054Y6524063D01*
X26275745Y6527217D01*
X26265545Y6624266D01*
X26261406Y6644425D01*
X26257552Y6664630D01*
X26256636Y6667664D01*
X26227780Y6760883D01*
X26219800Y6779867D01*
X26212099Y6798927D01*
X26210617Y6801715D01*
X26210613Y6801723D01*
X26210608Y6801730D01*
X26164199Y6887563D01*
X26152686Y6904632D01*
X26141428Y6921835D01*
X26139425Y6924291D01*
X26077223Y6999480D01*
X26062611Y7013991D01*
X26048231Y7028675D01*
X26045795Y7030690D01*
X26045788Y7030697D01*
X26045780Y7030702D01*
X25970168Y7092371D01*
X25953064Y7103735D01*
X25936053Y7115383D01*
X25933265Y7116890D01*
X25847104Y7162702D01*
X25828096Y7170536D01*
X25809174Y7178646D01*
X25806146Y7179583D01*
X25806148Y7179583D01*
X25806140Y7179585D01*
X25712728Y7207788D01*
X25692566Y7211781D01*
X25672419Y7216063D01*
X25669272Y7216394D01*
X25669268Y7216394D01*
X25572150Y7225916D01*
X25572143Y7225916D01*
X25561148Y7226999D01*
X12538852Y7226999D01*
X12529028Y7226031D01*
X12525936Y7226053D01*
X12522782Y7225744D01*
X12425733Y7215544D01*
X12405574Y7211405D01*
X12385369Y7207551D01*
X12382335Y7206635D01*
X12289116Y7177779D01*
X12270132Y7169799D01*
X12251072Y7162098D01*
X12248284Y7160616D01*
X12248276Y7160612D01*
X12248269Y7160607D01*
X12162436Y7114198D01*
X12145367Y7102685D01*
X12128164Y7091427D01*
X12125708Y7089424D01*
X12050519Y7027222D01*
X12036008Y7012610D01*
X12021324Y6998230D01*
X12019309Y6995794D01*
X12019302Y6995787D01*
X12019297Y6995779D01*
X11957628Y6920167D01*
X11946264Y6903063D01*
X11934616Y6886052D01*
X11933109Y6883264D01*
X11887297Y6797103D01*
X11879463Y6778095D01*
X11871353Y6759173D01*
X11870416Y6756145D01*
X11842211Y6662727D01*
X11838218Y6642565D01*
X11833936Y6622418D01*
X11833605Y6619267D01*
X11824083Y6522149D01*
X11824083Y6522141D01*
X11823000Y6511146D01*
X11303000Y6511146D01*
X11303000Y6598452D01*
X11320843Y6802395D01*
X11372388Y6994765D01*
X11456555Y7175260D01*
X11570780Y7338390D01*
X11711610Y7479220D01*
X11874740Y7593445D01*
X12055235Y7677612D01*
X12247605Y7729157D01*
X12451548Y7747000D01*
X25648452Y7747000D01*
X25852395Y7729157D01*
X25852395Y7729157D01*
G37*
X25852395Y7729157D02*
X26044765Y7677612D01*
X26225260Y7593445D01*
X26388390Y7479220D01*
X26529220Y7338390D01*
X26643445Y7175260D01*
X26727612Y6994765D01*
X26779157Y6802395D01*
X26797000Y6598452D01*
X26797000Y-6598452D01*
X26779157Y-6802395D01*
X26727612Y-6994765D01*
X26643445Y-7175260D01*
X26529220Y-7338390D01*
X26388390Y-7479220D01*
X26225260Y-7593445D01*
X26044765Y-7677612D01*
X25852395Y-7729157D01*
X25648452Y-7747000D01*
X12451548Y-7747000D01*
X12247605Y-7729157D01*
X12055235Y-7677612D01*
X11874740Y-7593445D01*
X11711610Y-7479220D01*
X11570780Y-7338390D01*
X11456555Y-7175260D01*
X11372388Y-6994765D01*
X11320843Y-6802395D01*
X11303000Y-6598452D01*
X11303000Y6511146D01*
X11823000Y6511146D01*
X11823001Y-6511148D01*
X11823968Y-6520962D01*
X11823946Y-6524065D01*
X11824255Y-6527219D01*
X11834456Y-6624267D01*
X11838589Y-6644402D01*
X11842448Y-6664631D01*
X11843364Y-6667665D01*
X11872220Y-6760883D01*
X11880181Y-6779821D01*
X11887900Y-6798928D01*
X11889388Y-6801726D01*
X11935801Y-6887563D01*
X11947302Y-6904615D01*
X11958572Y-6921836D01*
X11960575Y-6924292D01*
X12022777Y-6999480D01*
X12037370Y-7013972D01*
X12051769Y-7028676D01*
X12054205Y-7030691D01*
X12054212Y-7030698D01*
X12054220Y-7030703D01*
X12129832Y-7092372D01*
X12146936Y-7103736D01*
X12163947Y-7115384D01*
X12166735Y-7116891D01*
X12252896Y-7162703D01*
X12271904Y-7170537D01*
X12290826Y-7178647D01*
X12293852Y-7179583D01*
X12293856Y-7179585D01*
X12293860Y-7179586D01*
X12387272Y-7207789D01*
X12407434Y-7211782D01*
X12427581Y-7216064D01*
X12430727Y-7216394D01*
X12430730Y-7216395D01*
X12430733Y-7216395D01*
X12527850Y-7225917D01*
X12527857Y-7225917D01*
X12538852Y-7227000D01*
X25561148Y-7227000D01*
X25570972Y-7226032D01*
X25574065Y-7226054D01*
X25577219Y-7225745D01*
X25674267Y-7215544D01*
X25694402Y-7211411D01*
X25714631Y-7207552D01*
X25717665Y-7206636D01*
X25810883Y-7177780D01*
X25829821Y-7169819D01*
X25848928Y-7162100D01*
X25851726Y-7160612D01*
X25937563Y-7114199D01*
X25954615Y-7102698D01*
X25971836Y-7091428D01*
X25974292Y-7089425D01*
X26049480Y-7027223D01*
X26063972Y-7012630D01*
X26078676Y-6998231D01*
X26080691Y-6995795D01*
X26080698Y-6995788D01*
X26080703Y-6995780D01*
X26142372Y-6920168D01*
X26153736Y-6903064D01*
X26165384Y-6886053D01*
X26166891Y-6883265D01*
X26212703Y-6797104D01*
X26220537Y-6778096D01*
X26228647Y-6759174D01*
X26229584Y-6756146D01*
X26257789Y-6662728D01*
X26261782Y-6642566D01*
X26266064Y-6622419D01*
X26266395Y-6619267D01*
X26275917Y-6522150D01*
X26275917Y-6522143D01*
X26277000Y-6511148D01*
X26277000Y6511147D01*
X26276032Y6520971D01*
X26276054Y6524063D01*
X26275745Y6527217D01*
X26265545Y6624266D01*
X26261406Y6644425D01*
X26257552Y6664630D01*
X26256636Y6667664D01*
X26227780Y6760883D01*
X26219800Y6779867D01*
X26212099Y6798927D01*
X26210617Y6801715D01*
X26210613Y6801723D01*
X26210608Y6801730D01*
X26164199Y6887563D01*
X26152686Y6904632D01*
X26141428Y6921835D01*
X26139425Y6924291D01*
X26077223Y6999480D01*
X26062611Y7013991D01*
X26048231Y7028675D01*
X26045795Y7030690D01*
X26045788Y7030697D01*
X26045780Y7030702D01*
X25970168Y7092371D01*
X25953064Y7103735D01*
X25936053Y7115383D01*
X25933265Y7116890D01*
X25847104Y7162702D01*
X25828096Y7170536D01*
X25809174Y7178646D01*
X25806146Y7179583D01*
X25806148Y7179583D01*
X25806140Y7179585D01*
X25712728Y7207788D01*
X25692566Y7211781D01*
X25672419Y7216063D01*
X25669272Y7216394D01*
X25669268Y7216394D01*
X25572150Y7225916D01*
X25572143Y7225916D01*
X25561148Y7226999D01*
X12538852Y7226999D01*
X12529028Y7226031D01*
X12525936Y7226053D01*
X12522782Y7225744D01*
X12425733Y7215544D01*
X12405574Y7211405D01*
X12385369Y7207551D01*
X12382335Y7206635D01*
X12289116Y7177779D01*
X12270132Y7169799D01*
X12251072Y7162098D01*
X12248284Y7160616D01*
X12248276Y7160612D01*
X12248269Y7160607D01*
X12162436Y7114198D01*
X12145367Y7102685D01*
X12128164Y7091427D01*
X12125708Y7089424D01*
X12050519Y7027222D01*
X12036008Y7012610D01*
X12021324Y6998230D01*
X12019309Y6995794D01*
X12019302Y6995787D01*
X12019297Y6995779D01*
X11957628Y6920167D01*
X11946264Y6903063D01*
X11934616Y6886052D01*
X11933109Y6883264D01*
X11887297Y6797103D01*
X11879463Y6778095D01*
X11871353Y6759173D01*
X11870416Y6756145D01*
X11842211Y6662727D01*
X11838218Y6642565D01*
X11833936Y6622418D01*
X11833605Y6619267D01*
X11824083Y6522149D01*
X11824083Y6522141D01*
X11823000Y6511146D01*
X11303000Y6511146D01*
X11303000Y6598452D01*
X11320843Y6802395D01*
X11372388Y6994765D01*
X11456555Y7175260D01*
X11570780Y7338390D01*
X11711610Y7479220D01*
X11874740Y7593445D01*
X12055235Y7677612D01*
X12247605Y7729157D01*
X12451548Y7747000D01*
X25648452Y7747000D01*
X25852395Y7729157D01*
G36*
X44902395Y7729157D02*
G01*
X45094765Y7677612D01*
X45275260Y7593445D01*
X45438390Y7479220D01*
X45579220Y7338390D01*
X45693445Y7175260D01*
X45777612Y6994765D01*
X45829157Y6802395D01*
X45847000Y6598452D01*
X45847000Y-6598452D01*
X45829157Y-6802395D01*
X45777612Y-6994765D01*
X45693445Y-7175260D01*
X45579220Y-7338390D01*
X45438390Y-7479220D01*
X45275260Y-7593445D01*
X45094765Y-7677612D01*
X44902395Y-7729157D01*
X44698452Y-7747000D01*
X31501548Y-7747000D01*
X31297605Y-7729157D01*
X31105235Y-7677612D01*
X30924740Y-7593445D01*
X30761610Y-7479220D01*
X30620780Y-7338390D01*
X30506555Y-7175260D01*
X30422388Y-6994765D01*
X30370843Y-6802395D01*
X30353000Y-6598452D01*
X30353000Y6511146D01*
X30873000Y6511146D01*
X30873001Y-6511148D01*
X30873968Y-6520962D01*
X30873946Y-6524065D01*
X30874255Y-6527219D01*
X30884456Y-6624267D01*
X30888589Y-6644402D01*
X30892448Y-6664631D01*
X30893364Y-6667665D01*
X30922220Y-6760883D01*
X30930181Y-6779821D01*
X30937900Y-6798928D01*
X30939388Y-6801726D01*
X30985801Y-6887563D01*
X30997302Y-6904615D01*
X31008572Y-6921836D01*
X31010575Y-6924292D01*
X31072777Y-6999480D01*
X31087370Y-7013972D01*
X31101769Y-7028676D01*
X31104205Y-7030691D01*
X31104212Y-7030698D01*
X31104220Y-7030703D01*
X31179832Y-7092372D01*
X31196936Y-7103736D01*
X31213947Y-7115384D01*
X31216735Y-7116891D01*
X31302896Y-7162703D01*
X31321904Y-7170537D01*
X31340826Y-7178647D01*
X31343852Y-7179583D01*
X31343856Y-7179585D01*
X31343860Y-7179586D01*
X31437272Y-7207789D01*
X31457434Y-7211782D01*
X31477581Y-7216064D01*
X31480727Y-7216394D01*
X31480730Y-7216395D01*
X31480733Y-7216395D01*
X31577850Y-7225917D01*
X31577857Y-7225917D01*
X31588852Y-7227000D01*
X44611147Y-7227000D01*
X44620971Y-7226032D01*
X44624064Y-7226054D01*
X44627218Y-7225745D01*
X44724266Y-7215544D01*
X44744401Y-7211411D01*
X44764630Y-7207552D01*
X44767664Y-7206636D01*
X44860882Y-7177780D01*
X44879820Y-7169819D01*
X44898927Y-7162100D01*
X44901725Y-7160612D01*
X44987562Y-7114199D01*
X45004614Y-7102698D01*
X45021835Y-7091428D01*
X45024291Y-7089425D01*
X45099479Y-7027223D01*
X45113971Y-7012630D01*
X45128675Y-6998231D01*
X45130690Y-6995795D01*
X45130697Y-6995788D01*
X45130702Y-6995780D01*
X45192371Y-6920168D01*
X45203735Y-6903064D01*
X45215383Y-6886053D01*
X45216890Y-6883265D01*
X45262702Y-6797104D01*
X45270536Y-6778096D01*
X45278646Y-6759174D01*
X45279583Y-6756146D01*
X45307788Y-6662728D01*
X45311781Y-6642566D01*
X45316063Y-6622419D01*
X45316394Y-6619267D01*
X45325916Y-6522150D01*
X45327000Y-6511148D01*
X45327000Y6511147D01*
X45326031Y6520980D01*
X45326053Y6524063D01*
X45325744Y6527217D01*
X45315544Y6624266D01*
X45311405Y6644425D01*
X45307551Y6664630D01*
X45306635Y6667664D01*
X45277779Y6760883D01*
X45269799Y6779867D01*
X45262098Y6798927D01*
X45260616Y6801715D01*
X45260612Y6801723D01*
X45260607Y6801730D01*
X45214198Y6887563D01*
X45202685Y6904632D01*
X45191427Y6921835D01*
X45189424Y6924291D01*
X45127222Y6999480D01*
X45112610Y7013991D01*
X45098230Y7028675D01*
X45095794Y7030690D01*
X45095787Y7030697D01*
X45095779Y7030702D01*
X45020167Y7092371D01*
X45003063Y7103735D01*
X44986052Y7115383D01*
X44983264Y7116890D01*
X44897103Y7162702D01*
X44878095Y7170536D01*
X44859173Y7178646D01*
X44856145Y7179583D01*
X44856147Y7179583D01*
X44856139Y7179585D01*
X44762727Y7207788D01*
X44742565Y7211781D01*
X44722418Y7216063D01*
X44719271Y7216394D01*
X44719267Y7216394D01*
X44622149Y7225916D01*
X44622142Y7225916D01*
X44611147Y7226999D01*
X31588852Y7226999D01*
X31579028Y7226031D01*
X31575936Y7226053D01*
X31572782Y7225744D01*
X31475733Y7215544D01*
X31455574Y7211405D01*
X31435369Y7207551D01*
X31432335Y7206635D01*
X31339116Y7177779D01*
X31320132Y7169799D01*
X31301072Y7162098D01*
X31298284Y7160616D01*
X31298276Y7160612D01*
X31298269Y7160607D01*
X31212436Y7114198D01*
X31195367Y7102685D01*
X31178164Y7091427D01*
X31175708Y7089424D01*
X31100519Y7027222D01*
X31086008Y7012610D01*
X31071324Y6998230D01*
X31069309Y6995794D01*
X31069302Y6995787D01*
X31069297Y6995779D01*
X31007628Y6920167D01*
X30996264Y6903063D01*
X30984616Y6886052D01*
X30983109Y6883264D01*
X30937297Y6797103D01*
X30929463Y6778095D01*
X30921353Y6759173D01*
X30920416Y6756145D01*
X30892211Y6662727D01*
X30888218Y6642565D01*
X30883936Y6622418D01*
X30883605Y6619267D01*
X30874083Y6522149D01*
X30874083Y6522141D01*
X30873000Y6511146D01*
X30353000Y6511146D01*
X30353000Y6598452D01*
X30370843Y6802395D01*
X30422388Y6994765D01*
X30506555Y7175260D01*
X30620780Y7338390D01*
X30761610Y7479220D01*
X30924740Y7593445D01*
X31105235Y7677612D01*
X31297605Y7729157D01*
X31501548Y7747000D01*
X44698452Y7747000D01*
X44902395Y7729157D01*
X44902395Y7729157D01*
G37*
X44902395Y7729157D02*
X45094765Y7677612D01*
X45275260Y7593445D01*
X45438390Y7479220D01*
X45579220Y7338390D01*
X45693445Y7175260D01*
X45777612Y6994765D01*
X45829157Y6802395D01*
X45847000Y6598452D01*
X45847000Y-6598452D01*
X45829157Y-6802395D01*
X45777612Y-6994765D01*
X45693445Y-7175260D01*
X45579220Y-7338390D01*
X45438390Y-7479220D01*
X45275260Y-7593445D01*
X45094765Y-7677612D01*
X44902395Y-7729157D01*
X44698452Y-7747000D01*
X31501548Y-7747000D01*
X31297605Y-7729157D01*
X31105235Y-7677612D01*
X30924740Y-7593445D01*
X30761610Y-7479220D01*
X30620780Y-7338390D01*
X30506555Y-7175260D01*
X30422388Y-6994765D01*
X30370843Y-6802395D01*
X30353000Y-6598452D01*
X30353000Y6511146D01*
X30873000Y6511146D01*
X30873001Y-6511148D01*
X30873968Y-6520962D01*
X30873946Y-6524065D01*
X30874255Y-6527219D01*
X30884456Y-6624267D01*
X30888589Y-6644402D01*
X30892448Y-6664631D01*
X30893364Y-6667665D01*
X30922220Y-6760883D01*
X30930181Y-6779821D01*
X30937900Y-6798928D01*
X30939388Y-6801726D01*
X30985801Y-6887563D01*
X30997302Y-6904615D01*
X31008572Y-6921836D01*
X31010575Y-6924292D01*
X31072777Y-6999480D01*
X31087370Y-7013972D01*
X31101769Y-7028676D01*
X31104205Y-7030691D01*
X31104212Y-7030698D01*
X31104220Y-7030703D01*
X31179832Y-7092372D01*
X31196936Y-7103736D01*
X31213947Y-7115384D01*
X31216735Y-7116891D01*
X31302896Y-7162703D01*
X31321904Y-7170537D01*
X31340826Y-7178647D01*
X31343852Y-7179583D01*
X31343856Y-7179585D01*
X31343860Y-7179586D01*
X31437272Y-7207789D01*
X31457434Y-7211782D01*
X31477581Y-7216064D01*
X31480727Y-7216394D01*
X31480730Y-7216395D01*
X31480733Y-7216395D01*
X31577850Y-7225917D01*
X31577857Y-7225917D01*
X31588852Y-7227000D01*
X44611147Y-7227000D01*
X44620971Y-7226032D01*
X44624064Y-7226054D01*
X44627218Y-7225745D01*
X44724266Y-7215544D01*
X44744401Y-7211411D01*
X44764630Y-7207552D01*
X44767664Y-7206636D01*
X44860882Y-7177780D01*
X44879820Y-7169819D01*
X44898927Y-7162100D01*
X44901725Y-7160612D01*
X44987562Y-7114199D01*
X45004614Y-7102698D01*
X45021835Y-7091428D01*
X45024291Y-7089425D01*
X45099479Y-7027223D01*
X45113971Y-7012630D01*
X45128675Y-6998231D01*
X45130690Y-6995795D01*
X45130697Y-6995788D01*
X45130702Y-6995780D01*
X45192371Y-6920168D01*
X45203735Y-6903064D01*
X45215383Y-6886053D01*
X45216890Y-6883265D01*
X45262702Y-6797104D01*
X45270536Y-6778096D01*
X45278646Y-6759174D01*
X45279583Y-6756146D01*
X45307788Y-6662728D01*
X45311781Y-6642566D01*
X45316063Y-6622419D01*
X45316394Y-6619267D01*
X45325916Y-6522150D01*
X45327000Y-6511148D01*
X45327000Y6511147D01*
X45326031Y6520980D01*
X45326053Y6524063D01*
X45325744Y6527217D01*
X45315544Y6624266D01*
X45311405Y6644425D01*
X45307551Y6664630D01*
X45306635Y6667664D01*
X45277779Y6760883D01*
X45269799Y6779867D01*
X45262098Y6798927D01*
X45260616Y6801715D01*
X45260612Y6801723D01*
X45260607Y6801730D01*
X45214198Y6887563D01*
X45202685Y6904632D01*
X45191427Y6921835D01*
X45189424Y6924291D01*
X45127222Y6999480D01*
X45112610Y7013991D01*
X45098230Y7028675D01*
X45095794Y7030690D01*
X45095787Y7030697D01*
X45095779Y7030702D01*
X45020167Y7092371D01*
X45003063Y7103735D01*
X44986052Y7115383D01*
X44983264Y7116890D01*
X44897103Y7162702D01*
X44878095Y7170536D01*
X44859173Y7178646D01*
X44856145Y7179583D01*
X44856147Y7179583D01*
X44856139Y7179585D01*
X44762727Y7207788D01*
X44742565Y7211781D01*
X44722418Y7216063D01*
X44719271Y7216394D01*
X44719267Y7216394D01*
X44622149Y7225916D01*
X44622142Y7225916D01*
X44611147Y7226999D01*
X31588852Y7226999D01*
X31579028Y7226031D01*
X31575936Y7226053D01*
X31572782Y7225744D01*
X31475733Y7215544D01*
X31455574Y7211405D01*
X31435369Y7207551D01*
X31432335Y7206635D01*
X31339116Y7177779D01*
X31320132Y7169799D01*
X31301072Y7162098D01*
X31298284Y7160616D01*
X31298276Y7160612D01*
X31298269Y7160607D01*
X31212436Y7114198D01*
X31195367Y7102685D01*
X31178164Y7091427D01*
X31175708Y7089424D01*
X31100519Y7027222D01*
X31086008Y7012610D01*
X31071324Y6998230D01*
X31069309Y6995794D01*
X31069302Y6995787D01*
X31069297Y6995779D01*
X31007628Y6920167D01*
X30996264Y6903063D01*
X30984616Y6886052D01*
X30983109Y6883264D01*
X30937297Y6797103D01*
X30929463Y6778095D01*
X30921353Y6759173D01*
X30920416Y6756145D01*
X30892211Y6662727D01*
X30888218Y6642565D01*
X30883936Y6622418D01*
X30883605Y6619267D01*
X30874083Y6522149D01*
X30874083Y6522141D01*
X30873000Y6511146D01*
X30353000Y6511146D01*
X30353000Y6598452D01*
X30370843Y6802395D01*
X30422388Y6994765D01*
X30506555Y7175260D01*
X30620780Y7338390D01*
X30761610Y7479220D01*
X30924740Y7593445D01*
X31105235Y7677612D01*
X31297605Y7729157D01*
X31501548Y7747000D01*
X44698452Y7747000D01*
X44902395Y7729157D01*
G36*
X63952395Y7729157D02*
G01*
X64144765Y7677612D01*
X64325260Y7593445D01*
X64488390Y7479220D01*
X64629220Y7338390D01*
X64743445Y7175260D01*
X64827612Y6994765D01*
X64879157Y6802395D01*
X64897000Y6598452D01*
X64897000Y-6598452D01*
X64879157Y-6802395D01*
X64827612Y-6994765D01*
X64743445Y-7175260D01*
X64629220Y-7338390D01*
X64488390Y-7479220D01*
X64325260Y-7593445D01*
X64144765Y-7677612D01*
X63952395Y-7729157D01*
X63748452Y-7747000D01*
X50551548Y-7747000D01*
X50347605Y-7729157D01*
X50155235Y-7677612D01*
X49974740Y-7593445D01*
X49811610Y-7479220D01*
X49670780Y-7338390D01*
X49556555Y-7175260D01*
X49472388Y-6994765D01*
X49420843Y-6802395D01*
X49403000Y-6598452D01*
X49403000Y6511146D01*
X49923000Y6511146D01*
X49923001Y-6511148D01*
X49923968Y-6520962D01*
X49923946Y-6524065D01*
X49924255Y-6527219D01*
X49934456Y-6624267D01*
X49938589Y-6644402D01*
X49942448Y-6664631D01*
X49943364Y-6667665D01*
X49972220Y-6760883D01*
X49980181Y-6779821D01*
X49987900Y-6798928D01*
X49989388Y-6801726D01*
X50035801Y-6887563D01*
X50047302Y-6904615D01*
X50058572Y-6921836D01*
X50060575Y-6924292D01*
X50122777Y-6999480D01*
X50137370Y-7013972D01*
X50151769Y-7028676D01*
X50154205Y-7030691D01*
X50154212Y-7030698D01*
X50154220Y-7030703D01*
X50229832Y-7092372D01*
X50246936Y-7103736D01*
X50263947Y-7115384D01*
X50266735Y-7116891D01*
X50352896Y-7162703D01*
X50371904Y-7170537D01*
X50390826Y-7178647D01*
X50393852Y-7179583D01*
X50393856Y-7179585D01*
X50393860Y-7179586D01*
X50487272Y-7207789D01*
X50507434Y-7211782D01*
X50527581Y-7216064D01*
X50530727Y-7216394D01*
X50530730Y-7216395D01*
X50530733Y-7216395D01*
X50627850Y-7225917D01*
X50627857Y-7225917D01*
X50638852Y-7227000D01*
X63661148Y-7227000D01*
X63670972Y-7226032D01*
X63674065Y-7226054D01*
X63677219Y-7225745D01*
X63774267Y-7215544D01*
X63794402Y-7211411D01*
X63814631Y-7207552D01*
X63817665Y-7206636D01*
X63910883Y-7177780D01*
X63929821Y-7169819D01*
X63948928Y-7162100D01*
X63951726Y-7160612D01*
X64037563Y-7114199D01*
X64054615Y-7102698D01*
X64071836Y-7091428D01*
X64074292Y-7089425D01*
X64149480Y-7027223D01*
X64163972Y-7012630D01*
X64178676Y-6998231D01*
X64180691Y-6995795D01*
X64180698Y-6995788D01*
X64180703Y-6995780D01*
X64242372Y-6920168D01*
X64253736Y-6903064D01*
X64265384Y-6886053D01*
X64266891Y-6883265D01*
X64312703Y-6797104D01*
X64320537Y-6778096D01*
X64328647Y-6759174D01*
X64329584Y-6756146D01*
X64357789Y-6662728D01*
X64361782Y-6642566D01*
X64366064Y-6622419D01*
X64366395Y-6619267D01*
X64375917Y-6522150D01*
X64375917Y-6522143D01*
X64377000Y-6511148D01*
X64377000Y6511147D01*
X64376032Y6520971D01*
X64376054Y6524063D01*
X64375745Y6527217D01*
X64365545Y6624266D01*
X64361406Y6644425D01*
X64357552Y6664630D01*
X64356636Y6667664D01*
X64327780Y6760883D01*
X64319800Y6779867D01*
X64312099Y6798927D01*
X64310617Y6801715D01*
X64310613Y6801723D01*
X64310608Y6801730D01*
X64264199Y6887563D01*
X64252686Y6904632D01*
X64241428Y6921835D01*
X64239425Y6924291D01*
X64177223Y6999480D01*
X64162611Y7013991D01*
X64148231Y7028675D01*
X64145795Y7030690D01*
X64145788Y7030697D01*
X64145780Y7030702D01*
X64070168Y7092371D01*
X64053064Y7103735D01*
X64036053Y7115383D01*
X64033265Y7116890D01*
X63947104Y7162702D01*
X63928096Y7170536D01*
X63909174Y7178646D01*
X63906146Y7179583D01*
X63906148Y7179583D01*
X63906140Y7179585D01*
X63812728Y7207788D01*
X63792566Y7211781D01*
X63772419Y7216063D01*
X63769272Y7216394D01*
X63769268Y7216394D01*
X63672150Y7225916D01*
X63672143Y7225916D01*
X63661148Y7226999D01*
X50638852Y7226999D01*
X50629028Y7226031D01*
X50625936Y7226053D01*
X50622782Y7225744D01*
X50525733Y7215544D01*
X50505574Y7211405D01*
X50485369Y7207551D01*
X50482335Y7206635D01*
X50389116Y7177779D01*
X50370132Y7169799D01*
X50351072Y7162098D01*
X50348284Y7160616D01*
X50348276Y7160612D01*
X50348269Y7160607D01*
X50262436Y7114198D01*
X50245367Y7102685D01*
X50228164Y7091427D01*
X50225708Y7089424D01*
X50150519Y7027222D01*
X50136008Y7012610D01*
X50121324Y6998230D01*
X50119309Y6995794D01*
X50119302Y6995787D01*
X50119297Y6995779D01*
X50057628Y6920167D01*
X50046264Y6903063D01*
X50034616Y6886052D01*
X50033109Y6883264D01*
X49987297Y6797103D01*
X49979463Y6778095D01*
X49971353Y6759173D01*
X49970416Y6756145D01*
X49942211Y6662727D01*
X49938218Y6642565D01*
X49933936Y6622418D01*
X49933605Y6619267D01*
X49924083Y6522149D01*
X49924083Y6522141D01*
X49923000Y6511146D01*
X49403000Y6511146D01*
X49403000Y6598452D01*
X49420843Y6802395D01*
X49472388Y6994765D01*
X49556555Y7175260D01*
X49670780Y7338390D01*
X49811610Y7479220D01*
X49974740Y7593445D01*
X50155235Y7677612D01*
X50347605Y7729157D01*
X50551548Y7747000D01*
X63748452Y7747000D01*
X63952395Y7729157D01*
X63952395Y7729157D01*
G37*
X63952395Y7729157D02*
X64144765Y7677612D01*
X64325260Y7593445D01*
X64488390Y7479220D01*
X64629220Y7338390D01*
X64743445Y7175260D01*
X64827612Y6994765D01*
X64879157Y6802395D01*
X64897000Y6598452D01*
X64897000Y-6598452D01*
X64879157Y-6802395D01*
X64827612Y-6994765D01*
X64743445Y-7175260D01*
X64629220Y-7338390D01*
X64488390Y-7479220D01*
X64325260Y-7593445D01*
X64144765Y-7677612D01*
X63952395Y-7729157D01*
X63748452Y-7747000D01*
X50551548Y-7747000D01*
X50347605Y-7729157D01*
X50155235Y-7677612D01*
X49974740Y-7593445D01*
X49811610Y-7479220D01*
X49670780Y-7338390D01*
X49556555Y-7175260D01*
X49472388Y-6994765D01*
X49420843Y-6802395D01*
X49403000Y-6598452D01*
X49403000Y6511146D01*
X49923000Y6511146D01*
X49923001Y-6511148D01*
X49923968Y-6520962D01*
X49923946Y-6524065D01*
X49924255Y-6527219D01*
X49934456Y-6624267D01*
X49938589Y-6644402D01*
X49942448Y-6664631D01*
X49943364Y-6667665D01*
X49972220Y-6760883D01*
X49980181Y-6779821D01*
X49987900Y-6798928D01*
X49989388Y-6801726D01*
X50035801Y-6887563D01*
X50047302Y-6904615D01*
X50058572Y-6921836D01*
X50060575Y-6924292D01*
X50122777Y-6999480D01*
X50137370Y-7013972D01*
X50151769Y-7028676D01*
X50154205Y-7030691D01*
X50154212Y-7030698D01*
X50154220Y-7030703D01*
X50229832Y-7092372D01*
X50246936Y-7103736D01*
X50263947Y-7115384D01*
X50266735Y-7116891D01*
X50352896Y-7162703D01*
X50371904Y-7170537D01*
X50390826Y-7178647D01*
X50393852Y-7179583D01*
X50393856Y-7179585D01*
X50393860Y-7179586D01*
X50487272Y-7207789D01*
X50507434Y-7211782D01*
X50527581Y-7216064D01*
X50530727Y-7216394D01*
X50530730Y-7216395D01*
X50530733Y-7216395D01*
X50627850Y-7225917D01*
X50627857Y-7225917D01*
X50638852Y-7227000D01*
X63661148Y-7227000D01*
X63670972Y-7226032D01*
X63674065Y-7226054D01*
X63677219Y-7225745D01*
X63774267Y-7215544D01*
X63794402Y-7211411D01*
X63814631Y-7207552D01*
X63817665Y-7206636D01*
X63910883Y-7177780D01*
X63929821Y-7169819D01*
X63948928Y-7162100D01*
X63951726Y-7160612D01*
X64037563Y-7114199D01*
X64054615Y-7102698D01*
X64071836Y-7091428D01*
X64074292Y-7089425D01*
X64149480Y-7027223D01*
X64163972Y-7012630D01*
X64178676Y-6998231D01*
X64180691Y-6995795D01*
X64180698Y-6995788D01*
X64180703Y-6995780D01*
X64242372Y-6920168D01*
X64253736Y-6903064D01*
X64265384Y-6886053D01*
X64266891Y-6883265D01*
X64312703Y-6797104D01*
X64320537Y-6778096D01*
X64328647Y-6759174D01*
X64329584Y-6756146D01*
X64357789Y-6662728D01*
X64361782Y-6642566D01*
X64366064Y-6622419D01*
X64366395Y-6619267D01*
X64375917Y-6522150D01*
X64375917Y-6522143D01*
X64377000Y-6511148D01*
X64377000Y6511147D01*
X64376032Y6520971D01*
X64376054Y6524063D01*
X64375745Y6527217D01*
X64365545Y6624266D01*
X64361406Y6644425D01*
X64357552Y6664630D01*
X64356636Y6667664D01*
X64327780Y6760883D01*
X64319800Y6779867D01*
X64312099Y6798927D01*
X64310617Y6801715D01*
X64310613Y6801723D01*
X64310608Y6801730D01*
X64264199Y6887563D01*
X64252686Y6904632D01*
X64241428Y6921835D01*
X64239425Y6924291D01*
X64177223Y6999480D01*
X64162611Y7013991D01*
X64148231Y7028675D01*
X64145795Y7030690D01*
X64145788Y7030697D01*
X64145780Y7030702D01*
X64070168Y7092371D01*
X64053064Y7103735D01*
X64036053Y7115383D01*
X64033265Y7116890D01*
X63947104Y7162702D01*
X63928096Y7170536D01*
X63909174Y7178646D01*
X63906146Y7179583D01*
X63906148Y7179583D01*
X63906140Y7179585D01*
X63812728Y7207788D01*
X63792566Y7211781D01*
X63772419Y7216063D01*
X63769272Y7216394D01*
X63769268Y7216394D01*
X63672150Y7225916D01*
X63672143Y7225916D01*
X63661148Y7226999D01*
X50638852Y7226999D01*
X50629028Y7226031D01*
X50625936Y7226053D01*
X50622782Y7225744D01*
X50525733Y7215544D01*
X50505574Y7211405D01*
X50485369Y7207551D01*
X50482335Y7206635D01*
X50389116Y7177779D01*
X50370132Y7169799D01*
X50351072Y7162098D01*
X50348284Y7160616D01*
X50348276Y7160612D01*
X50348269Y7160607D01*
X50262436Y7114198D01*
X50245367Y7102685D01*
X50228164Y7091427D01*
X50225708Y7089424D01*
X50150519Y7027222D01*
X50136008Y7012610D01*
X50121324Y6998230D01*
X50119309Y6995794D01*
X50119302Y6995787D01*
X50119297Y6995779D01*
X50057628Y6920167D01*
X50046264Y6903063D01*
X50034616Y6886052D01*
X50033109Y6883264D01*
X49987297Y6797103D01*
X49979463Y6778095D01*
X49971353Y6759173D01*
X49970416Y6756145D01*
X49942211Y6662727D01*
X49938218Y6642565D01*
X49933936Y6622418D01*
X49933605Y6619267D01*
X49924083Y6522149D01*
X49924083Y6522141D01*
X49923000Y6511146D01*
X49403000Y6511146D01*
X49403000Y6598452D01*
X49420843Y6802395D01*
X49472388Y6994765D01*
X49556555Y7175260D01*
X49670780Y7338390D01*
X49811610Y7479220D01*
X49974740Y7593445D01*
X50155235Y7677612D01*
X50347605Y7729157D01*
X50551548Y7747000D01*
X63748452Y7747000D01*
X63952395Y7729157D01*
G36*
X25852395Y-49420843D02*
G01*
X26044765Y-49472388D01*
X26225260Y-49556555D01*
X26388390Y-49670780D01*
X26529220Y-49811610D01*
X26643445Y-49974740D01*
X26727612Y-50155235D01*
X26779157Y-50347605D01*
X26797000Y-50551548D01*
X26797000Y-63748452D01*
X26779157Y-63952395D01*
X26727612Y-64144765D01*
X26643445Y-64325260D01*
X26529220Y-64488390D01*
X26388390Y-64629220D01*
X26225260Y-64743445D01*
X26044765Y-64827612D01*
X25852395Y-64879157D01*
X25648452Y-64897000D01*
X12451548Y-64897000D01*
X12247605Y-64879157D01*
X12055235Y-64827612D01*
X11874740Y-64743445D01*
X11711610Y-64629220D01*
X11570780Y-64488390D01*
X11456555Y-64325260D01*
X11372388Y-64144765D01*
X11320843Y-63952395D01*
X11303000Y-63748452D01*
X11303000Y-50638853D01*
X11823000Y-50638853D01*
X11823001Y-63661148D01*
X11823968Y-63670962D01*
X11823946Y-63674065D01*
X11824255Y-63677219D01*
X11834456Y-63774267D01*
X11838589Y-63794402D01*
X11842448Y-63814631D01*
X11843364Y-63817665D01*
X11872220Y-63910883D01*
X11880181Y-63929821D01*
X11887900Y-63948928D01*
X11889388Y-63951726D01*
X11935801Y-64037563D01*
X11947302Y-64054615D01*
X11958572Y-64071836D01*
X11960575Y-64074292D01*
X12022777Y-64149480D01*
X12037370Y-64163972D01*
X12051769Y-64178676D01*
X12054205Y-64180691D01*
X12054212Y-64180698D01*
X12054220Y-64180703D01*
X12129832Y-64242372D01*
X12146936Y-64253736D01*
X12163947Y-64265384D01*
X12166735Y-64266891D01*
X12252896Y-64312703D01*
X12271904Y-64320537D01*
X12290826Y-64328647D01*
X12293852Y-64329583D01*
X12293856Y-64329585D01*
X12293860Y-64329586D01*
X12387272Y-64357789D01*
X12407434Y-64361782D01*
X12427581Y-64366064D01*
X12430727Y-64366394D01*
X12430730Y-64366395D01*
X12430733Y-64366395D01*
X12527850Y-64375917D01*
X12527857Y-64375917D01*
X12538852Y-64377000D01*
X25561148Y-64377000D01*
X25570972Y-64376032D01*
X25574065Y-64376054D01*
X25577219Y-64375745D01*
X25674267Y-64365544D01*
X25694402Y-64361411D01*
X25714631Y-64357552D01*
X25717665Y-64356636D01*
X25810883Y-64327780D01*
X25829821Y-64319819D01*
X25848928Y-64312100D01*
X25851726Y-64310612D01*
X25937563Y-64264199D01*
X25954615Y-64252698D01*
X25971836Y-64241428D01*
X25974292Y-64239425D01*
X26049480Y-64177223D01*
X26063972Y-64162630D01*
X26078676Y-64148231D01*
X26080691Y-64145795D01*
X26080698Y-64145788D01*
X26080703Y-64145780D01*
X26142372Y-64070168D01*
X26153736Y-64053064D01*
X26165384Y-64036053D01*
X26166891Y-64033265D01*
X26212703Y-63947104D01*
X26220537Y-63928096D01*
X26228647Y-63909174D01*
X26229584Y-63906146D01*
X26257789Y-63812728D01*
X26261782Y-63792566D01*
X26266064Y-63772419D01*
X26266395Y-63769267D01*
X26275917Y-63672150D01*
X26275917Y-63672143D01*
X26277000Y-63661148D01*
X26277000Y-50638852D01*
X26276032Y-50629028D01*
X26276054Y-50625936D01*
X26275745Y-50622782D01*
X26265545Y-50525733D01*
X26261406Y-50505574D01*
X26257552Y-50485369D01*
X26256636Y-50482335D01*
X26227780Y-50389116D01*
X26219800Y-50370132D01*
X26212099Y-50351072D01*
X26210617Y-50348284D01*
X26210613Y-50348276D01*
X26210608Y-50348269D01*
X26164199Y-50262436D01*
X26152686Y-50245367D01*
X26141428Y-50228164D01*
X26139425Y-50225708D01*
X26077223Y-50150519D01*
X26062611Y-50136008D01*
X26048231Y-50121324D01*
X26045795Y-50119309D01*
X26045788Y-50119302D01*
X26045780Y-50119297D01*
X25970168Y-50057628D01*
X25953064Y-50046264D01*
X25936053Y-50034616D01*
X25933265Y-50033109D01*
X25847104Y-49987297D01*
X25828096Y-49979463D01*
X25809174Y-49971353D01*
X25806146Y-49970416D01*
X25806148Y-49970416D01*
X25806140Y-49970414D01*
X25712728Y-49942211D01*
X25692566Y-49938218D01*
X25672419Y-49933936D01*
X25669272Y-49933605D01*
X25669268Y-49933605D01*
X25572150Y-49924083D01*
X25572143Y-49924083D01*
X25561148Y-49923000D01*
X12538852Y-49923000D01*
X12529028Y-49923968D01*
X12525936Y-49923946D01*
X12522782Y-49924255D01*
X12425733Y-49934455D01*
X12405574Y-49938594D01*
X12385369Y-49942448D01*
X12382335Y-49943364D01*
X12289116Y-49972220D01*
X12270132Y-49980200D01*
X12251072Y-49987901D01*
X12248284Y-49989383D01*
X12248276Y-49989387D01*
X12248269Y-49989392D01*
X12162436Y-50035801D01*
X12145367Y-50047314D01*
X12128164Y-50058572D01*
X12125708Y-50060575D01*
X12050519Y-50122777D01*
X12036008Y-50137389D01*
X12021324Y-50151769D01*
X12019309Y-50154205D01*
X12019302Y-50154212D01*
X12019297Y-50154220D01*
X11957628Y-50229832D01*
X11946264Y-50246936D01*
X11934616Y-50263947D01*
X11933109Y-50266735D01*
X11887297Y-50352896D01*
X11879463Y-50371904D01*
X11871353Y-50390826D01*
X11870416Y-50393854D01*
X11842211Y-50487272D01*
X11838218Y-50507434D01*
X11833936Y-50527581D01*
X11833605Y-50530732D01*
X11824083Y-50627850D01*
X11824083Y-50627858D01*
X11823000Y-50638853D01*
X11303000Y-50638853D01*
X11303000Y-50551548D01*
X11320843Y-50347605D01*
X11372388Y-50155235D01*
X11456555Y-49974740D01*
X11570780Y-49811610D01*
X11711610Y-49670780D01*
X11874740Y-49556555D01*
X12055235Y-49472388D01*
X12247605Y-49420843D01*
X12451548Y-49403000D01*
X25648452Y-49403000D01*
X25852395Y-49420843D01*
X25852395Y-49420843D01*
G37*
X25852395Y-49420843D02*
X26044765Y-49472388D01*
X26225260Y-49556555D01*
X26388390Y-49670780D01*
X26529220Y-49811610D01*
X26643445Y-49974740D01*
X26727612Y-50155235D01*
X26779157Y-50347605D01*
X26797000Y-50551548D01*
X26797000Y-63748452D01*
X26779157Y-63952395D01*
X26727612Y-64144765D01*
X26643445Y-64325260D01*
X26529220Y-64488390D01*
X26388390Y-64629220D01*
X26225260Y-64743445D01*
X26044765Y-64827612D01*
X25852395Y-64879157D01*
X25648452Y-64897000D01*
X12451548Y-64897000D01*
X12247605Y-64879157D01*
X12055235Y-64827612D01*
X11874740Y-64743445D01*
X11711610Y-64629220D01*
X11570780Y-64488390D01*
X11456555Y-64325260D01*
X11372388Y-64144765D01*
X11320843Y-63952395D01*
X11303000Y-63748452D01*
X11303000Y-50638853D01*
X11823000Y-50638853D01*
X11823001Y-63661148D01*
X11823968Y-63670962D01*
X11823946Y-63674065D01*
X11824255Y-63677219D01*
X11834456Y-63774267D01*
X11838589Y-63794402D01*
X11842448Y-63814631D01*
X11843364Y-63817665D01*
X11872220Y-63910883D01*
X11880181Y-63929821D01*
X11887900Y-63948928D01*
X11889388Y-63951726D01*
X11935801Y-64037563D01*
X11947302Y-64054615D01*
X11958572Y-64071836D01*
X11960575Y-64074292D01*
X12022777Y-64149480D01*
X12037370Y-64163972D01*
X12051769Y-64178676D01*
X12054205Y-64180691D01*
X12054212Y-64180698D01*
X12054220Y-64180703D01*
X12129832Y-64242372D01*
X12146936Y-64253736D01*
X12163947Y-64265384D01*
X12166735Y-64266891D01*
X12252896Y-64312703D01*
X12271904Y-64320537D01*
X12290826Y-64328647D01*
X12293852Y-64329583D01*
X12293856Y-64329585D01*
X12293860Y-64329586D01*
X12387272Y-64357789D01*
X12407434Y-64361782D01*
X12427581Y-64366064D01*
X12430727Y-64366394D01*
X12430730Y-64366395D01*
X12430733Y-64366395D01*
X12527850Y-64375917D01*
X12527857Y-64375917D01*
X12538852Y-64377000D01*
X25561148Y-64377000D01*
X25570972Y-64376032D01*
X25574065Y-64376054D01*
X25577219Y-64375745D01*
X25674267Y-64365544D01*
X25694402Y-64361411D01*
X25714631Y-64357552D01*
X25717665Y-64356636D01*
X25810883Y-64327780D01*
X25829821Y-64319819D01*
X25848928Y-64312100D01*
X25851726Y-64310612D01*
X25937563Y-64264199D01*
X25954615Y-64252698D01*
X25971836Y-64241428D01*
X25974292Y-64239425D01*
X26049480Y-64177223D01*
X26063972Y-64162630D01*
X26078676Y-64148231D01*
X26080691Y-64145795D01*
X26080698Y-64145788D01*
X26080703Y-64145780D01*
X26142372Y-64070168D01*
X26153736Y-64053064D01*
X26165384Y-64036053D01*
X26166891Y-64033265D01*
X26212703Y-63947104D01*
X26220537Y-63928096D01*
X26228647Y-63909174D01*
X26229584Y-63906146D01*
X26257789Y-63812728D01*
X26261782Y-63792566D01*
X26266064Y-63772419D01*
X26266395Y-63769267D01*
X26275917Y-63672150D01*
X26275917Y-63672143D01*
X26277000Y-63661148D01*
X26277000Y-50638852D01*
X26276032Y-50629028D01*
X26276054Y-50625936D01*
X26275745Y-50622782D01*
X26265545Y-50525733D01*
X26261406Y-50505574D01*
X26257552Y-50485369D01*
X26256636Y-50482335D01*
X26227780Y-50389116D01*
X26219800Y-50370132D01*
X26212099Y-50351072D01*
X26210617Y-50348284D01*
X26210613Y-50348276D01*
X26210608Y-50348269D01*
X26164199Y-50262436D01*
X26152686Y-50245367D01*
X26141428Y-50228164D01*
X26139425Y-50225708D01*
X26077223Y-50150519D01*
X26062611Y-50136008D01*
X26048231Y-50121324D01*
X26045795Y-50119309D01*
X26045788Y-50119302D01*
X26045780Y-50119297D01*
X25970168Y-50057628D01*
X25953064Y-50046264D01*
X25936053Y-50034616D01*
X25933265Y-50033109D01*
X25847104Y-49987297D01*
X25828096Y-49979463D01*
X25809174Y-49971353D01*
X25806146Y-49970416D01*
X25806148Y-49970416D01*
X25806140Y-49970414D01*
X25712728Y-49942211D01*
X25692566Y-49938218D01*
X25672419Y-49933936D01*
X25669272Y-49933605D01*
X25669268Y-49933605D01*
X25572150Y-49924083D01*
X25572143Y-49924083D01*
X25561148Y-49923000D01*
X12538852Y-49923000D01*
X12529028Y-49923968D01*
X12525936Y-49923946D01*
X12522782Y-49924255D01*
X12425733Y-49934455D01*
X12405574Y-49938594D01*
X12385369Y-49942448D01*
X12382335Y-49943364D01*
X12289116Y-49972220D01*
X12270132Y-49980200D01*
X12251072Y-49987901D01*
X12248284Y-49989383D01*
X12248276Y-49989387D01*
X12248269Y-49989392D01*
X12162436Y-50035801D01*
X12145367Y-50047314D01*
X12128164Y-50058572D01*
X12125708Y-50060575D01*
X12050519Y-50122777D01*
X12036008Y-50137389D01*
X12021324Y-50151769D01*
X12019309Y-50154205D01*
X12019302Y-50154212D01*
X12019297Y-50154220D01*
X11957628Y-50229832D01*
X11946264Y-50246936D01*
X11934616Y-50263947D01*
X11933109Y-50266735D01*
X11887297Y-50352896D01*
X11879463Y-50371904D01*
X11871353Y-50390826D01*
X11870416Y-50393854D01*
X11842211Y-50487272D01*
X11838218Y-50507434D01*
X11833936Y-50527581D01*
X11833605Y-50530732D01*
X11824083Y-50627850D01*
X11824083Y-50627858D01*
X11823000Y-50638853D01*
X11303000Y-50638853D01*
X11303000Y-50551548D01*
X11320843Y-50347605D01*
X11372388Y-50155235D01*
X11456555Y-49974740D01*
X11570780Y-49811610D01*
X11711610Y-49670780D01*
X11874740Y-49556555D01*
X12055235Y-49472388D01*
X12247605Y-49420843D01*
X12451548Y-49403000D01*
X25648452Y-49403000D01*
X25852395Y-49420843D01*
G36*
X63952395Y-49420843D02*
G01*
X64144765Y-49472388D01*
X64325260Y-49556555D01*
X64488390Y-49670780D01*
X64629220Y-49811610D01*
X64743445Y-49974740D01*
X64827612Y-50155235D01*
X64879157Y-50347605D01*
X64897000Y-50551548D01*
X64897000Y-63748452D01*
X64879157Y-63952395D01*
X64827612Y-64144765D01*
X64743445Y-64325260D01*
X64629220Y-64488390D01*
X64488390Y-64629220D01*
X64325260Y-64743445D01*
X64144765Y-64827612D01*
X63952395Y-64879157D01*
X63748452Y-64897000D01*
X50551548Y-64897000D01*
X50347605Y-64879157D01*
X50155235Y-64827612D01*
X49974740Y-64743445D01*
X49811610Y-64629220D01*
X49670780Y-64488390D01*
X49556555Y-64325260D01*
X49472388Y-64144765D01*
X49420843Y-63952395D01*
X49403000Y-63748452D01*
X49403000Y-50638853D01*
X49923000Y-50638853D01*
X49923001Y-63661148D01*
X49923968Y-63670962D01*
X49923946Y-63674065D01*
X49924255Y-63677219D01*
X49934456Y-63774267D01*
X49938589Y-63794402D01*
X49942448Y-63814631D01*
X49943364Y-63817665D01*
X49972220Y-63910883D01*
X49980181Y-63929821D01*
X49987900Y-63948928D01*
X49989388Y-63951726D01*
X50035801Y-64037563D01*
X50047302Y-64054615D01*
X50058572Y-64071836D01*
X50060575Y-64074292D01*
X50122777Y-64149480D01*
X50137370Y-64163972D01*
X50151769Y-64178676D01*
X50154205Y-64180691D01*
X50154212Y-64180698D01*
X50154220Y-64180703D01*
X50229832Y-64242372D01*
X50246936Y-64253736D01*
X50263947Y-64265384D01*
X50266735Y-64266891D01*
X50352896Y-64312703D01*
X50371904Y-64320537D01*
X50390826Y-64328647D01*
X50393852Y-64329583D01*
X50393856Y-64329585D01*
X50393860Y-64329586D01*
X50487272Y-64357789D01*
X50507434Y-64361782D01*
X50527581Y-64366064D01*
X50530727Y-64366394D01*
X50530730Y-64366395D01*
X50530733Y-64366395D01*
X50627850Y-64375917D01*
X50627857Y-64375917D01*
X50638852Y-64377000D01*
X63661148Y-64377000D01*
X63670972Y-64376032D01*
X63674065Y-64376054D01*
X63677219Y-64375745D01*
X63774267Y-64365544D01*
X63794402Y-64361411D01*
X63814631Y-64357552D01*
X63817665Y-64356636D01*
X63910883Y-64327780D01*
X63929821Y-64319819D01*
X63948928Y-64312100D01*
X63951726Y-64310612D01*
X64037563Y-64264199D01*
X64054615Y-64252698D01*
X64071836Y-64241428D01*
X64074292Y-64239425D01*
X64149480Y-64177223D01*
X64163972Y-64162630D01*
X64178676Y-64148231D01*
X64180691Y-64145795D01*
X64180698Y-64145788D01*
X64180703Y-64145780D01*
X64242372Y-64070168D01*
X64253736Y-64053064D01*
X64265384Y-64036053D01*
X64266891Y-64033265D01*
X64312703Y-63947104D01*
X64320537Y-63928096D01*
X64328647Y-63909174D01*
X64329584Y-63906146D01*
X64357789Y-63812728D01*
X64361782Y-63792566D01*
X64366064Y-63772419D01*
X64366395Y-63769267D01*
X64375917Y-63672150D01*
X64375917Y-63672143D01*
X64377000Y-63661148D01*
X64377000Y-50638852D01*
X64376032Y-50629028D01*
X64376054Y-50625936D01*
X64375745Y-50622782D01*
X64365545Y-50525733D01*
X64361406Y-50505574D01*
X64357552Y-50485369D01*
X64356636Y-50482335D01*
X64327780Y-50389116D01*
X64319800Y-50370132D01*
X64312099Y-50351072D01*
X64310617Y-50348284D01*
X64310613Y-50348276D01*
X64310608Y-50348269D01*
X64264199Y-50262436D01*
X64252686Y-50245367D01*
X64241428Y-50228164D01*
X64239425Y-50225708D01*
X64177223Y-50150519D01*
X64162611Y-50136008D01*
X64148231Y-50121324D01*
X64145795Y-50119309D01*
X64145788Y-50119302D01*
X64145780Y-50119297D01*
X64070168Y-50057628D01*
X64053064Y-50046264D01*
X64036053Y-50034616D01*
X64033265Y-50033109D01*
X63947104Y-49987297D01*
X63928096Y-49979463D01*
X63909174Y-49971353D01*
X63906146Y-49970416D01*
X63906148Y-49970416D01*
X63906140Y-49970414D01*
X63812728Y-49942211D01*
X63792566Y-49938218D01*
X63772419Y-49933936D01*
X63769272Y-49933605D01*
X63769268Y-49933605D01*
X63672150Y-49924083D01*
X63672143Y-49924083D01*
X63661148Y-49923000D01*
X50638852Y-49923000D01*
X50629028Y-49923968D01*
X50625936Y-49923946D01*
X50622782Y-49924255D01*
X50525733Y-49934455D01*
X50505574Y-49938594D01*
X50485369Y-49942448D01*
X50482335Y-49943364D01*
X50389116Y-49972220D01*
X50370132Y-49980200D01*
X50351072Y-49987901D01*
X50348284Y-49989383D01*
X50348276Y-49989387D01*
X50348269Y-49989392D01*
X50262436Y-50035801D01*
X50245367Y-50047314D01*
X50228164Y-50058572D01*
X50225708Y-50060575D01*
X50150519Y-50122777D01*
X50136008Y-50137389D01*
X50121324Y-50151769D01*
X50119309Y-50154205D01*
X50119302Y-50154212D01*
X50119297Y-50154220D01*
X50057628Y-50229832D01*
X50046264Y-50246936D01*
X50034616Y-50263947D01*
X50033109Y-50266735D01*
X49987297Y-50352896D01*
X49979463Y-50371904D01*
X49971353Y-50390826D01*
X49970416Y-50393854D01*
X49942211Y-50487272D01*
X49938218Y-50507434D01*
X49933936Y-50527581D01*
X49933605Y-50530732D01*
X49924083Y-50627850D01*
X49924083Y-50627858D01*
X49923000Y-50638853D01*
X49403000Y-50638853D01*
X49403000Y-50551548D01*
X49420843Y-50347605D01*
X49472388Y-50155235D01*
X49556555Y-49974740D01*
X49670780Y-49811610D01*
X49811610Y-49670780D01*
X49974740Y-49556555D01*
X50155235Y-49472388D01*
X50347605Y-49420843D01*
X50551548Y-49403000D01*
X63748452Y-49403000D01*
X63952395Y-49420843D01*
X63952395Y-49420843D01*
G37*
X63952395Y-49420843D02*
X64144765Y-49472388D01*
X64325260Y-49556555D01*
X64488390Y-49670780D01*
X64629220Y-49811610D01*
X64743445Y-49974740D01*
X64827612Y-50155235D01*
X64879157Y-50347605D01*
X64897000Y-50551548D01*
X64897000Y-63748452D01*
X64879157Y-63952395D01*
X64827612Y-64144765D01*
X64743445Y-64325260D01*
X64629220Y-64488390D01*
X64488390Y-64629220D01*
X64325260Y-64743445D01*
X64144765Y-64827612D01*
X63952395Y-64879157D01*
X63748452Y-64897000D01*
X50551548Y-64897000D01*
X50347605Y-64879157D01*
X50155235Y-64827612D01*
X49974740Y-64743445D01*
X49811610Y-64629220D01*
X49670780Y-64488390D01*
X49556555Y-64325260D01*
X49472388Y-64144765D01*
X49420843Y-63952395D01*
X49403000Y-63748452D01*
X49403000Y-50638853D01*
X49923000Y-50638853D01*
X49923001Y-63661148D01*
X49923968Y-63670962D01*
X49923946Y-63674065D01*
X49924255Y-63677219D01*
X49934456Y-63774267D01*
X49938589Y-63794402D01*
X49942448Y-63814631D01*
X49943364Y-63817665D01*
X49972220Y-63910883D01*
X49980181Y-63929821D01*
X49987900Y-63948928D01*
X49989388Y-63951726D01*
X50035801Y-64037563D01*
X50047302Y-64054615D01*
X50058572Y-64071836D01*
X50060575Y-64074292D01*
X50122777Y-64149480D01*
X50137370Y-64163972D01*
X50151769Y-64178676D01*
X50154205Y-64180691D01*
X50154212Y-64180698D01*
X50154220Y-64180703D01*
X50229832Y-64242372D01*
X50246936Y-64253736D01*
X50263947Y-64265384D01*
X50266735Y-64266891D01*
X50352896Y-64312703D01*
X50371904Y-64320537D01*
X50390826Y-64328647D01*
X50393852Y-64329583D01*
X50393856Y-64329585D01*
X50393860Y-64329586D01*
X50487272Y-64357789D01*
X50507434Y-64361782D01*
X50527581Y-64366064D01*
X50530727Y-64366394D01*
X50530730Y-64366395D01*
X50530733Y-64366395D01*
X50627850Y-64375917D01*
X50627857Y-64375917D01*
X50638852Y-64377000D01*
X63661148Y-64377000D01*
X63670972Y-64376032D01*
X63674065Y-64376054D01*
X63677219Y-64375745D01*
X63774267Y-64365544D01*
X63794402Y-64361411D01*
X63814631Y-64357552D01*
X63817665Y-64356636D01*
X63910883Y-64327780D01*
X63929821Y-64319819D01*
X63948928Y-64312100D01*
X63951726Y-64310612D01*
X64037563Y-64264199D01*
X64054615Y-64252698D01*
X64071836Y-64241428D01*
X64074292Y-64239425D01*
X64149480Y-64177223D01*
X64163972Y-64162630D01*
X64178676Y-64148231D01*
X64180691Y-64145795D01*
X64180698Y-64145788D01*
X64180703Y-64145780D01*
X64242372Y-64070168D01*
X64253736Y-64053064D01*
X64265384Y-64036053D01*
X64266891Y-64033265D01*
X64312703Y-63947104D01*
X64320537Y-63928096D01*
X64328647Y-63909174D01*
X64329584Y-63906146D01*
X64357789Y-63812728D01*
X64361782Y-63792566D01*
X64366064Y-63772419D01*
X64366395Y-63769267D01*
X64375917Y-63672150D01*
X64375917Y-63672143D01*
X64377000Y-63661148D01*
X64377000Y-50638852D01*
X64376032Y-50629028D01*
X64376054Y-50625936D01*
X64375745Y-50622782D01*
X64365545Y-50525733D01*
X64361406Y-50505574D01*
X64357552Y-50485369D01*
X64356636Y-50482335D01*
X64327780Y-50389116D01*
X64319800Y-50370132D01*
X64312099Y-50351072D01*
X64310617Y-50348284D01*
X64310613Y-50348276D01*
X64310608Y-50348269D01*
X64264199Y-50262436D01*
X64252686Y-50245367D01*
X64241428Y-50228164D01*
X64239425Y-50225708D01*
X64177223Y-50150519D01*
X64162611Y-50136008D01*
X64148231Y-50121324D01*
X64145795Y-50119309D01*
X64145788Y-50119302D01*
X64145780Y-50119297D01*
X64070168Y-50057628D01*
X64053064Y-50046264D01*
X64036053Y-50034616D01*
X64033265Y-50033109D01*
X63947104Y-49987297D01*
X63928096Y-49979463D01*
X63909174Y-49971353D01*
X63906146Y-49970416D01*
X63906148Y-49970416D01*
X63906140Y-49970414D01*
X63812728Y-49942211D01*
X63792566Y-49938218D01*
X63772419Y-49933936D01*
X63769272Y-49933605D01*
X63769268Y-49933605D01*
X63672150Y-49924083D01*
X63672143Y-49924083D01*
X63661148Y-49923000D01*
X50638852Y-49923000D01*
X50629028Y-49923968D01*
X50625936Y-49923946D01*
X50622782Y-49924255D01*
X50525733Y-49934455D01*
X50505574Y-49938594D01*
X50485369Y-49942448D01*
X50482335Y-49943364D01*
X50389116Y-49972220D01*
X50370132Y-49980200D01*
X50351072Y-49987901D01*
X50348284Y-49989383D01*
X50348276Y-49989387D01*
X50348269Y-49989392D01*
X50262436Y-50035801D01*
X50245367Y-50047314D01*
X50228164Y-50058572D01*
X50225708Y-50060575D01*
X50150519Y-50122777D01*
X50136008Y-50137389D01*
X50121324Y-50151769D01*
X50119309Y-50154205D01*
X50119302Y-50154212D01*
X50119297Y-50154220D01*
X50057628Y-50229832D01*
X50046264Y-50246936D01*
X50034616Y-50263947D01*
X50033109Y-50266735D01*
X49987297Y-50352896D01*
X49979463Y-50371904D01*
X49971353Y-50390826D01*
X49970416Y-50393854D01*
X49942211Y-50487272D01*
X49938218Y-50507434D01*
X49933936Y-50527581D01*
X49933605Y-50530732D01*
X49924083Y-50627850D01*
X49924083Y-50627858D01*
X49923000Y-50638853D01*
X49403000Y-50638853D01*
X49403000Y-50551548D01*
X49420843Y-50347605D01*
X49472388Y-50155235D01*
X49556555Y-49974740D01*
X49670780Y-49811610D01*
X49811610Y-49670780D01*
X49974740Y-49556555D01*
X50155235Y-49472388D01*
X50347605Y-49420843D01*
X50551548Y-49403000D01*
X63748452Y-49403000D01*
X63952395Y-49420843D01*
M02*
